SplineFontDB: 3.0
FontName: Oxanium-ExtraBold
FullName: Oxanium ExtraBold
FamilyName: Oxanium
Weight: ExtraBold
Copyright: Copyright 2019 Severin Meyer, with Reserved Font Name Oxanium
Version: 0.000
ItalicAngle: 0
UnderlinePosition: -100
UnderlineWidth: 60
Ascent: 800
Descent: 200
InvalidEm: 0
LayerCount: 2
Layer: 0 1 "Back" 1
Layer: 1 1 "Fore" 0
StyleMap: 0x0040
FSType: 0
OS2Version: 4
OS2_WeightWidthSlopeOnly: 0
OS2_UseTypoMetrics: 1
CreationTime: 1546300800
ModificationTime: 1551033448
PfmFamily: 33
TTFWeight: 800
TTFWidth: 5
LineGap: 250
VLineGap: 0
OS2TypoAscent: 790
OS2TypoAOffset: 0
OS2TypoDescent: -210
OS2TypoDOffset: 0
OS2TypoLinegap: 250
OS2WinAscent: 1000
OS2WinAOffset: 0
OS2WinDescent: 250
OS2WinDOffset: 0
HheadAscent: 790
HheadAOffset: 0
HheadDescent: -210
HheadDOffset: 0
OS2SubXSize: 620
OS2SubYSize: 600
OS2SubXOff: 0
OS2SubYOff: 124
OS2SupXSize: 620
OS2SupYSize: 600
OS2SupXOff: 0
OS2SupYOff: 400
OS2StrikeYSize: 50
OS2StrikeYPos: 250
OS2CapHeight: 690
OS2XHeight: 532
OS2Vendor: '    '
DEI: 91125
LangName: 1033 "" "" "" "" "" "" "" "" "" "Severin Meyer" "" "" "https://TODO/fonts/oxanium" "SIL Open Font License 1.1" "http://scripts.sil.org/OFL" "" "Oxanium" "ExtraBold"
Encoding: Custom
UnicodeInterp: none
NameList: AGL For New Fonts
DisplaySize: -48
AntiAlias: 1
FitToEm: 0
WinInfo: 0 32 12
BeginPrivate: 2
BlueValues 41 [-10 0 532 542 690 700 740 750 1000 1010]
OtherBlues 11 [-210 -200]
EndPrivate
BeginChars: 375 375

StartChar: exclam
Encoding: 3 33 3
Width: 287
Flags: W
LayerCount: 2
Fore
SplineSet
56 0 m 1,0,-1
 56 161 l 1,1,-1
 231 161 l 1,2,-1
 231 0 l 1,3,-1
 56 0 l 1,0,-1
56 228 m 1,4,-1
 56 690 l 1,5,-1
 230 690 l 1,6,-1
 230 228 l 1,7,-1
 56 228 l 1,4,-1
EndSplineSet
EndChar

StartChar: numbersign
Encoding: 5 35 5
Width: 682
Flags: W
LayerCount: 2
Fore
SplineSet
50 154 m 1,0,-1
 50 296 l 1,1,-1
 152 296 l 1,2,-1
 152 394 l 1,3,-1
 50 394 l 1,4,-1
 50 536 l 1,5,-1
 152 536 l 1,6,-1
 152 690 l 1,7,-1
 302 690 l 1,8,-1
 302 536 l 1,9,-1
 380 536 l 1,10,-1
 380 690 l 1,11,-1
 530 690 l 1,12,-1
 530 536 l 1,13,-1
 632 536 l 1,14,-1
 632 394 l 1,15,-1
 530 394 l 1,16,-1
 530 296 l 1,17,-1
 632 296 l 1,18,-1
 632 154 l 1,19,-1
 530 154 l 1,20,-1
 530 0 l 1,21,-1
 380 0 l 1,22,-1
 380 154 l 1,23,-1
 302 154 l 1,24,-1
 302 0 l 1,25,-1
 152 0 l 1,26,-1
 152 154 l 1,27,-1
 50 154 l 1,0,-1
302 296 m 1,28,-1
 380 296 l 1,29,-1
 380 394 l 1,30,-1
 302 394 l 1,31,-1
 302 296 l 1,28,-1
EndSplineSet
EndChar

StartChar: dollar
Encoding: 6 36 6
Width: 578
Flags: W
LayerCount: 2
Fore
SplineSet
51 60 m 1,0,-1
 51 157 l 1,1,-1
 342 157 l 2,2,3
 353 157 353 157 353 168 c 2,4,-1
 353 222 l 2,5,6
 353 236 353 236 341 238 c 2,7,-1
 176 270 l 2,8,9
 51 294 51 294 51 438 c 2,10,-1
 51 474 l 2,11,12
 51 660 51 660 212 660 c 2,13,-1
 216 660 l 1,14,-1
 216 780 l 1,15,-1
 362 780 l 1,16,-1
 362 660 l 1,17,-1
 429 660 l 1,18,-1
 507 600 l 1,19,-1
 507 503 l 1,20,-1
 236 503 l 2,21,22
 225 503 225 503 225 492 c 2,23,-1
 225 440 l 2,24,25
 225 426 225 426 237 424 c 2,26,-1
 402 390 l 2,27,28
 527 364 527 364 527 223 c 2,29,-1
 527 186 l 2,30,31
 527 0 527 0 366 0 c 2,32,-1
 362 0 l 1,33,-1
 362 -120 l 1,34,-1
 216 -120 l 1,35,-1
 216 0 l 1,36,-1
 129 0 l 1,37,-1
 51 60 l 1,0,-1
EndSplineSet
EndChar

StartChar: ampersand
Encoding: 8 38 8
Width: 684
Flags: W
LayerCount: 2
Fore
SplineSet
58 168 m 2,0,-1
 58 244 l 2,1,2
 58 296 58 296 91 324 c 2,3,-1
 133 359 l 1,4,-1
 98 401 l 2,5,6
 78 425 78 425 78 459 c 2,7,-1
 78 522 l 2,8,9
 78 690 78 690 246 690 c 2,10,-1
 424 690 l 1,11,-1
 494 638 l 1,12,-1
 494 545 l 1,13,-1
 258 545 l 2,14,15
 245 545 245 545 245 532 c 2,16,-1
 245 443 l 2,17,18
 245 430 245 430 258 430 c 2,19,-1
 644 430 l 1,20,-1
 644 285 l 1,21,-1
 544 285 l 1,22,-1
 544 0 l 1,23,-1
 226 0 l 2,24,25
 58 0 58 0 58 168 c 2,0,-1
225 158 m 2,26,27
 225 145 225 145 238 145 c 2,28,-1
 377 145 l 1,29,-1
 377 285 l 1,30,-1
 238 285 l 2,31,32
 225 285 225 285 225 272 c 2,33,-1
 225 158 l 2,26,27
EndSplineSet
EndChar

StartChar: quotesingle
Encoding: 9 39 9
Width: 265
Flags: W
LayerCount: 2
Fore
SplineSet
58 460 m 1,0,-1
 58 740 l 1,1,-1
 207 740 l 1,2,-1
 207 460 l 1,3,-1
 58 460 l 1,0,-1
EndSplineSet
EndChar

StartChar: parenleft
Encoding: 10 40 10
Width: 367
Flags: W
LayerCount: 2
Fore
SplineSet
61 290 m 128,-1,1
 61 564 61 564 222 785 c 1,2,-1
 350 690 l 1,3,4
 228 514 228 514 228 290 c 128,-1,5
 228 66 228 66 350 -110 c 1,6,-1
 222 -205 l 1,7,0
 61 16 61 16 61 290 c 128,-1,1
EndSplineSet
EndChar

StartChar: parenright
Encoding: 11 41 11
Width: 367
Flags: W
LayerCount: 2
Fore
SplineSet
17 -110 m 1,0,1
 139 66 139 66 139 290 c 128,-1,2
 139 514 139 514 17 690 c 1,3,-1
 144 785 l 1,4,5
 306 564 306 564 306 290 c 128,-1,6
 306 16 306 16 144 -205 c 1,7,-1
 17 -110 l 1,0,1
EndSplineSet
EndChar

StartChar: asterisk
Encoding: 12 42 12
Width: 521
Flags: W
LayerCount: 2
Fore
SplineSet
41 484 m 1,0,-1
 80 604 l 1,1,-1
 196 570 l 1,2,-1
 196 690 l 1,3,-1
 326 690 l 1,4,-1
 326 570 l 1,5,-1
 442 604 l 1,6,-1
 480 484 l 1,7,-1
 366 445 l 1,8,-1
 436 346 l 1,9,-1
 334 272 l 1,10,-1
 260 369 l 1,11,-1
 187 272 l 1,12,-1
 86 346 l 1,13,-1
 155 445 l 1,14,-1
 41 484 l 1,0,-1
EndSplineSet
EndChar

StartChar: plus
Encoding: 13 43 13
Width: 578
Flags: W
LayerCount: 2
Fore
SplineSet
58 264 m 1,0,-1
 58 406 l 1,1,-1
 214 406 l 1,2,-1
 214 570 l 1,3,-1
 364 570 l 1,4,-1
 364 406 l 1,5,-1
 520 406 l 1,6,-1
 520 264 l 1,7,-1
 364 264 l 1,8,-1
 364 100 l 1,9,-1
 214 100 l 1,10,-1
 214 264 l 1,11,-1
 58 264 l 1,0,-1
EndSplineSet
EndChar

StartChar: comma
Encoding: 14 44 14
Width: 287
Flags: W
LayerCount: 2
Fore
SplineSet
17 -124 m 1,0,-1
 78 161 l 1,1,-1
 234 161 l 1,2,-1
 251 136 l 1,3,-1
 140 -155 l 1,4,-1
 17 -124 l 1,0,-1
EndSplineSet
EndChar

StartChar: hyphen
Encoding: 15 45 15
Width: 390
Flags: W
LayerCount: 2
Fore
SplineSet
40 234 m 1,0,-1
 40 376 l 1,1,-1
 350 376 l 1,2,-1
 350 234 l 1,3,-1
 40 234 l 1,0,-1
EndSplineSet
EndChar

StartChar: period
Encoding: 16 46 16
Width: 287
Flags: W
LayerCount: 2
Fore
SplineSet
56 0 m 1,0,-1
 56 161 l 1,1,-1
 231 161 l 1,2,-1
 231 0 l 1,3,-1
 56 0 l 1,0,-1
EndSplineSet
EndChar

StartChar: slash
Encoding: 17 47 17
Width: 459
Flags: W
LayerCount: 2
Fore
SplineSet
20 -12 m 1,0,-1
 300 752 l 1,1,-1
 439 702 l 1,2,-1
 160 -62 l 1,3,-1
 20 -12 l 1,0,-1
EndSplineSet
EndChar

StartChar: zero
Encoding: 18 48 18
Width: 578
Flags: W
LayerCount: 2
Fore
SplineSet
46 176 m 2,0,-1
 46 514 l 2,1,2
 46 690 46 690 222 690 c 2,3,-1
 356 690 l 2,4,5
 532 690 532 690 532 514 c 2,6,-1
 532 176 l 2,7,8
 532 0 532 0 356 0 c 2,9,-1
 222 0 l 2,10,11
 46 0 46 0 46 176 c 2,0,-1
220 168 m 2,12,13
 220 157 220 157 231 157 c 2,14,-1
 347 157 l 2,15,16
 358 157 358 157 358 168 c 2,17,-1
 358 522 l 2,18,19
 358 533 358 533 347 533 c 2,20,-1
 231 533 l 2,21,22
 220 533 220 533 220 522 c 2,23,-1
 220 168 l 2,12,13
EndSplineSet
EndChar

StartChar: one
Encoding: 19 49 19
Width: 578
Flags: W
LayerCount: 2
Fore
SplineSet
74 0 m 1,0,-1
 74 157 l 1,1,-1
 218 157 l 1,2,-1
 218 533 l 1,3,-1
 94 533 l 1,4,-1
 94 630 l 1,5,-1
 172 690 l 1,6,-1
 392 690 l 1,7,-1
 392 157 l 1,8,-1
 520 157 l 1,9,-1
 520 0 l 1,10,-1
 74 0 l 1,0,-1
EndSplineSet
EndChar

StartChar: two
Encoding: 20 50 20
Width: 578
Flags: W
LayerCount: 2
Fore
SplineSet
46 0 m 1,0,-1
 46 232 l 2,1,2
 46 375 46 375 171 400 c 2,3,-1
 346 435 l 2,4,5
 358 438 358 438 358 451 c 2,6,-1
 358 522 l 2,7,8
 358 533 358 533 347 533 c 2,9,-1
 66 533 l 1,10,-1
 66 630 l 1,11,-1
 144 690 l 1,12,-1
 356 690 l 2,13,14
 532 690 532 690 532 514 c 2,15,-1
 532 450 l 2,16,17
 532 307 532 307 407 282 c 2,18,-1
 232 247 l 2,19,20
 220 244 220 244 220 231 c 2,21,-1
 220 157 l 1,22,-1
 532 157 l 1,23,-1
 532 0 l 1,24,-1
 46 0 l 1,0,-1
EndSplineSet
EndChar

StartChar: three
Encoding: 21 51 21
Width: 578
Flags: W
LayerCount: 2
Fore
SplineSet
56 60 m 1,0,-1
 56 157 l 1,1,-1
 347 157 l 2,2,3
 358 157 358 157 358 168 c 2,4,-1
 358 262 l 2,5,6
 358 273 358 273 347 273 c 2,7,-1
 130 273 l 1,8,-1
 130 430 l 1,9,-1
 347 430 l 2,10,11
 358 430 358 430 358 441 c 2,12,-1
 358 522 l 2,13,14
 358 533 358 533 347 533 c 2,15,-1
 66 533 l 1,16,-1
 66 630 l 1,17,-1
 144 690 l 1,18,-1
 356 690 l 2,19,20
 532 690 532 690 532 514 c 2,21,-1
 532 455 l 2,22,23
 532 415 532 415 507 390 c 2,24,-1
 472 355 l 1,25,-1
 507 320 l 2,26,27
 532 295 532 295 532 255 c 2,28,-1
 532 176 l 2,29,30
 532 0 532 0 356 0 c 2,31,-1
 134 0 l 1,32,-1
 56 60 l 1,0,-1
EndSplineSet
EndChar

StartChar: four
Encoding: 22 52 22
Width: 578
Flags: W
LayerCount: 2
Fore
SplineSet
46 88 m 1,0,-1
 46 230 l 1,1,-1
 247 690 l 1,2,-1
 395 690 l 1,3,-1
 415 655 l 1,4,-1
 236 246 l 1,5,-1
 358 246 l 1,6,-1
 358 430 l 1,7,-1
 532 430 l 1,8,-1
 532 0 l 1,9,-1
 358 0 l 1,10,-1
 358 88 l 1,11,-1
 46 88 l 1,0,-1
EndSplineSet
EndChar

StartChar: five
Encoding: 23 53 23
Width: 578
Flags: W
LayerCount: 2
Fore
SplineSet
36 60 m 1,0,-1
 36 157 l 1,1,-1
 347 157 l 2,2,3
 358 157 358 157 358 168 c 2,4,-1
 358 272 l 2,5,6
 358 283 358 283 347 283 c 2,7,-1
 46 283 l 1,8,-1
 46 690 l 1,9,-1
 502 690 l 1,10,-1
 502 533 l 1,11,-1
 220 533 l 1,12,-1
 220 440 l 1,13,-1
 356 440 l 2,14,15
 532 440 532 440 532 264 c 2,16,-1
 532 176 l 2,17,18
 532 0 532 0 356 0 c 2,19,-1
 114 0 l 1,20,-1
 36 60 l 1,0,-1
EndSplineSet
EndChar

StartChar: six
Encoding: 24 54 24
Width: 578
Flags: W
LayerCount: 2
Fore
SplineSet
46 176 m 2,0,-1
 46 479 l 2,1,2
 46 690 46 690 257 690 c 2,3,-1
 414 690 l 1,4,-1
 492 630 l 1,5,-1
 492 533 l 1,6,-1
 253 533 l 2,7,8
 220 533 220 533 220 500 c 2,9,-1
 220 440 l 1,10,-1
 356 440 l 2,11,12
 532 440 532 440 532 264 c 2,13,-1
 532 176 l 2,14,15
 532 0 532 0 356 0 c 2,16,-1
 222 0 l 2,17,18
 46 0 46 0 46 176 c 2,0,-1
220 168 m 2,19,20
 220 157 220 157 231 157 c 2,21,-1
 347 157 l 2,22,23
 358 157 358 157 358 168 c 2,24,-1
 358 272 l 2,25,26
 358 283 358 283 347 283 c 2,27,-1
 220 283 l 1,28,-1
 220 168 l 2,19,20
EndSplineSet
EndChar

StartChar: seven
Encoding: 25 55 25
Width: 578
Flags: W
LayerCount: 2
Fore
SplineSet
46 533 m 1,0,-1
 46 690 l 1,1,-1
 532 690 l 1,2,-1
 532 455 l 1,3,-1
 294 0 l 1,4,-1
 138 0 l 1,5,-1
 118 35 l 1,6,-1
 358 490 l 1,7,-1
 358 533 l 1,8,-1
 46 533 l 1,0,-1
EndSplineSet
EndChar

StartChar: eight
Encoding: 26 56 26
Width: 578
Flags: W
LayerCount: 2
Fore
SplineSet
46 176 m 2,0,-1
 46 254 l 2,1,2
 46 294 46 294 71 318 c 2,3,-1
 106 354 l 1,4,-1
 71 388 l 2,5,6
 46 414 46 414 46 454 c 2,7,-1
 46 514 l 2,8,9
 46 690 46 690 222 690 c 2,10,-1
 356 690 l 2,11,12
 532 690 532 690 532 514 c 2,13,-1
 532 454 l 2,14,15
 532 414 532 414 507 388 c 2,16,-1
 472 354 l 1,17,-1
 507 318 l 2,18,19
 532 294 532 294 532 254 c 2,20,-1
 532 176 l 2,21,22
 532 0 532 0 356 0 c 2,23,-1
 222 0 l 2,24,25
 46 0 46 0 46 176 c 2,0,-1
220 168 m 2,26,27
 220 157 220 157 231 157 c 2,28,-1
 347 157 l 2,29,30
 358 157 358 157 358 168 c 2,31,-1
 358 262 l 2,32,33
 358 273 358 273 347 273 c 2,34,-1
 231 273 l 2,35,36
 220 273 220 273 220 262 c 2,37,-1
 220 168 l 2,26,27
220 441 m 2,38,39
 220 430 220 430 231 430 c 2,40,-1
 347 430 l 2,41,42
 358 430 358 430 358 441 c 2,43,-1
 358 522 l 2,44,45
 358 533 358 533 347 533 c 2,46,-1
 231 533 l 2,47,48
 220 533 220 533 220 522 c 2,49,-1
 220 441 l 2,38,39
EndSplineSet
EndChar

StartChar: nine
Encoding: 27 57 27
Width: 578
Flags: W
LayerCount: 2
Fore
SplineSet
46 425 m 2,0,-1
 46 514 l 2,1,2
 46 690 46 690 222 690 c 2,3,-1
 356 690 l 2,4,5
 532 690 532 690 532 514 c 2,6,-1
 532 211 l 2,7,8
 532 0 532 0 321 0 c 2,9,-1
 154 0 l 1,10,-1
 76 60 l 1,11,-1
 76 157 l 1,12,-1
 325 157 l 2,13,14
 358 157 358 157 358 190 c 2,15,-1
 358 250 l 1,16,-1
 222 250 l 2,17,18
 46 250 46 250 46 425 c 2,0,-1
220 418 m 2,19,20
 220 407 220 407 231 407 c 2,21,-1
 358 407 l 1,22,-1
 358 522 l 2,23,24
 358 533 358 533 347 533 c 2,25,-1
 231 533 l 2,26,27
 220 533 220 533 220 522 c 2,28,-1
 220 418 l 2,19,20
EndSplineSet
EndChar

StartChar: less
Encoding: 30 60 30
Width: 578
Flags: W
LayerCount: 2
Fore
SplineSet
64 257 m 1,0,-1
 64 413 l 1,1,-1
 469 606 l 1,2,-1
 529 480 l 1,3,-1
 218 335 l 1,4,-1
 529 190 l 1,5,-1
 469 64 l 1,6,-1
 64 257 l 1,0,-1
EndSplineSet
EndChar

StartChar: equal
Encoding: 31 61 31
Width: 578
Flags: W
LayerCount: 2
Fore
SplineSet
58 154 m 1,0,-1
 58 296 l 1,1,-1
 520 296 l 1,2,-1
 520 154 l 1,3,-1
 58 154 l 1,0,-1
58 374 m 1,4,-1
 58 516 l 1,5,-1
 520 516 l 1,6,-1
 520 374 l 1,7,-1
 58 374 l 1,4,-1
EndSplineSet
EndChar

StartChar: greater
Encoding: 32 62 32
Width: 578
Flags: W
LayerCount: 2
Fore
SplineSet
49 190 m 1,0,-1
 360 335 l 1,1,-1
 49 480 l 1,2,-1
 109 606 l 1,3,-1
 514 413 l 1,4,-1
 514 257 l 1,5,-1
 109 64 l 1,6,-1
 49 190 l 1,0,-1
EndSplineSet
EndChar

StartChar: question
Encoding: 33 63 33
Width: 536
Flags: W
LayerCount: 2
Fore
SplineSet
40 533 m 1,0,-1
 40 630 l 1,1,-1
 118 690 l 1,2,-1
 310 690 l 2,3,4
 486 690 486 690 486 514 c 2,5,-1
 486 444 l 2,6,7
 486 258 486 258 321 258 c 2,8,-1
 317 258 l 1,9,-1
 317 228 l 1,10,-1
 143 228 l 1,11,-1
 143 415 l 1,12,-1
 301 415 l 2,13,14
 312 415 312 415 312 426 c 2,15,-1
 312 522 l 2,16,17
 312 533 312 533 301 533 c 2,18,-1
 40 533 l 1,0,-1
142 0 m 1,19,-1
 142 161 l 1,20,-1
 318 161 l 1,21,-1
 318 0 l 1,22,-1
 142 0 l 1,19,-1
EndSplineSet
EndChar

StartChar: at
Encoding: 34 64 34
Width: 812
Flags: W
LayerCount: 2
Fore
SplineSet
78 20 m 2,0,-1
 78 530 l 2,1,2
 78 690 78 690 238 690 c 2,3,-1
 734 690 l 1,4,-1
 734 60 l 1,5,-1
 466 60 l 2,6,7
 298 60 298 60 298 228 c 2,8,-1
 298 322 l 2,9,10
 298 490 298 490 466 490 c 2,11,-1
 585 490 l 1,12,-1
 585 560 l 1,13,-1
 244 560 l 2,14,15
 227 560 227 560 227 542 c 2,16,-1
 227 8 l 2,17,18
 227 -10 227 -10 244 -10 c 2,19,-1
 714 -10 l 1,20,-1
 714 -88 l 1,21,-1
 644 -140 l 1,22,-1
 238 -140 l 2,23,24
 78 -140 78 -140 78 20 c 2,0,-1
465 218 m 2,25,26
 465 205 465 205 478 205 c 2,27,-1
 567 205 l 1,28,-1
 567 345 l 1,29,-1
 478 345 l 2,30,31
 465 345 465 345 465 332 c 2,32,-1
 465 218 l 2,25,26
EndSplineSet
EndChar

StartChar: A
Encoding: 35 65 35
Width: 684
Flags: W
LayerCount: 2
Fore
SplineSet
17 32 m 1,0,-1
 212 690 l 1,1,-1
 472 690 l 1,2,-1
 667 32 l 1,3,-1
 646 0 l 1,4,-1
 500 0 l 1,5,-1
 466 123 l 1,6,-1
 218 123 l 1,7,-1
 184 0 l 1,8,-1
 38 0 l 1,9,-1
 17 32 l 1,0,-1
264 280 m 1,10,-1
 420 280 l 1,11,-1
 348 533 l 1,12,-1
 336 533 l 1,13,-1
 264 280 l 1,10,-1
EndSplineSet
EndChar

StartChar: B
Encoding: 36 66 36
Width: 656
Flags: W
LayerCount: 2
Fore
SplineSet
78 0 m 1,0,-1
 78 690 l 1,1,-1
 408 690 l 2,2,3
 584 690 584 690 584 514 c 2,4,-1
 584 459 l 2,5,6
 584 425 584 425 564 401 c 2,7,-1
 529 359 l 1,8,-1
 571 324 l 2,9,10
 604 297 604 297 604 244 c 2,11,-1
 604 176 l 2,12,13
 604 0 604 0 428 0 c 2,14,-1
 78 0 l 1,0,-1
252 157 m 1,15,-1
 419 157 l 2,16,17
 430 157 430 157 430 168 c 2,18,-1
 430 262 l 2,19,20
 430 273 430 273 419 273 c 2,21,-1
 252 273 l 1,22,-1
 252 157 l 1,15,-1
252 430 m 1,23,-1
 399 430 l 2,24,25
 410 430 410 430 410 441 c 2,26,-1
 410 522 l 2,27,28
 410 533 410 533 399 533 c 2,29,-1
 252 533 l 1,30,-1
 252 430 l 1,23,-1
EndSplineSet
EndChar

StartChar: C
Encoding: 37 67 37
Width: 631
Flags: W
LayerCount: 2
Fore
SplineSet
68 176 m 2,0,-1
 68 514 l 2,1,2
 68 690 68 690 244 690 c 2,3,-1
 503 690 l 1,4,-1
 581 630 l 1,5,-1
 581 533 l 1,6,-1
 253 533 l 2,7,8
 242 533 242 533 242 522 c 2,9,-1
 242 168 l 2,10,11
 242 157 242 157 253 157 c 2,12,-1
 581 157 l 1,13,-1
 581 60 l 1,14,-1
 503 0 l 1,15,-1
 244 0 l 2,16,17
 68 0 68 0 68 176 c 2,0,-1
EndSplineSet
EndChar

StartChar: D
Encoding: 38 68 38
Width: 692
Flags: W
LayerCount: 2
Fore
SplineSet
78 0 m 1,0,-1
 78 690 l 1,1,-1
 336 690 l 2,2,3
 634 690 634 690 634 392 c 2,4,-1
 634 298 l 2,5,6
 634 0 634 0 336 0 c 2,7,-1
 78 0 l 1,0,-1
252 157 m 1,8,-1
 346 157 l 2,9,10
 460 157 460 157 460 272 c 2,11,-1
 460 418 l 2,12,13
 460 533 460 533 346 533 c 2,14,-1
 252 533 l 1,15,-1
 252 157 l 1,8,-1
EndSplineSet
EndChar

StartChar: E
Encoding: 39 69 39
Width: 611
Flags: W
LayerCount: 2
Fore
SplineSet
78 0 m 1,0,-1
 78 690 l 1,1,-1
 561 690 l 1,2,-1
 561 533 l 1,3,-1
 252 533 l 1,4,-1
 252 430 l 1,5,-1
 531 430 l 1,6,-1
 531 273 l 1,7,-1
 252 273 l 1,8,-1
 252 157 l 1,9,-1
 561 157 l 1,10,-1
 561 0 l 1,11,-1
 78 0 l 1,0,-1
EndSplineSet
EndChar

StartChar: F
Encoding: 40 70 40
Width: 591
Flags: W
LayerCount: 2
Fore
SplineSet
78 0 m 1,0,-1
 78 690 l 1,1,-1
 561 690 l 1,2,-1
 561 533 l 1,3,-1
 252 533 l 1,4,-1
 252 400 l 1,5,-1
 531 400 l 1,6,-1
 531 243 l 1,7,-1
 252 243 l 1,8,-1
 252 0 l 1,9,-1
 78 0 l 1,0,-1
EndSplineSet
EndChar

StartChar: G
Encoding: 41 71 41
Width: 682
Flags: W
LayerCount: 2
Fore
SplineSet
68 176 m 2,0,-1
 68 514 l 2,1,2
 68 690 68 690 244 690 c 2,3,-1
 526 690 l 1,4,-1
 604 630 l 1,5,-1
 604 533 l 1,6,-1
 253 533 l 2,7,8
 242 533 242 533 242 522 c 2,9,-1
 242 168 l 2,10,11
 242 157 242 157 253 157 c 2,12,-1
 450 157 l 1,13,-1
 450 273 l 1,14,-1
 337 273 l 1,15,-1
 337 430 l 1,16,-1
 624 430 l 1,17,-1
 624 0 l 1,18,-1
 244 0 l 2,19,20
 68 0 68 0 68 176 c 2,0,-1
EndSplineSet
EndChar

StartChar: H
Encoding: 42 72 42
Width: 712
Flags: W
LayerCount: 2
Fore
SplineSet
78 0 m 1,0,-1
 78 690 l 1,1,-1
 252 690 l 1,2,-1
 252 430 l 1,3,-1
 460 430 l 1,4,-1
 460 690 l 1,5,-1
 634 690 l 1,6,-1
 634 0 l 1,7,-1
 460 0 l 1,8,-1
 460 273 l 1,9,-1
 252 273 l 1,10,-1
 252 0 l 1,11,-1
 78 0 l 1,0,-1
EndSplineSet
EndChar

StartChar: I
Encoding: 43 73 43
Width: 330
Flags: W
LayerCount: 2
Fore
SplineSet
78 0 m 1,0,-1
 78 690 l 1,1,-1
 252 690 l 1,2,-1
 252 0 l 1,3,-1
 78 0 l 1,0,-1
EndSplineSet
EndChar

StartChar: J
Encoding: 44 74 44
Width: 616
Flags: W
LayerCount: 2
Fore
SplineSet
48 176 m 2,0,-1
 48 320 l 1,1,-1
 222 320 l 1,2,-1
 222 168 l 2,3,4
 222 157 222 157 233 157 c 2,5,-1
 359 157 l 2,6,7
 370 157 370 157 370 168 c 2,8,-1
 370 533 l 1,9,-1
 201 533 l 1,10,-1
 201 690 l 1,11,-1
 544 690 l 1,12,-1
 544 176 l 2,13,14
 544 0 544 0 368 0 c 2,15,-1
 224 0 l 2,16,17
 48 0 48 0 48 176 c 2,0,-1
EndSplineSet
EndChar

StartChar: K
Encoding: 45 75 45
Width: 693
Flags: W
LayerCount: 2
Fore
SplineSet
78 0 m 1,0,-1
 78 690 l 1,1,-1
 252 690 l 1,2,-1
 252 458 l 1,3,-1
 460 690 l 1,4,-1
 624 690 l 1,5,-1
 640 656 l 1,6,-1
 416 406 l 1,7,-1
 666 34 l 1,8,-1
 650 0 l 1,9,-1
 490 0 l 1,10,-1
 304 280 l 1,11,-1
 252 226 l 1,12,-1
 252 0 l 1,13,-1
 78 0 l 1,0,-1
EndSplineSet
EndChar

StartChar: L
Encoding: 46 76 46
Width: 555
Flags: W
LayerCount: 2
Fore
SplineSet
78 0 m 1,0,-1
 78 690 l 1,1,-1
 252 690 l 1,2,-1
 252 157 l 1,3,-1
 531 157 l 1,4,-1
 531 0 l 1,5,-1
 78 0 l 1,0,-1
EndSplineSet
EndChar

StartChar: M
Encoding: 47 77 47
Width: 912
Flags: W
LayerCount: 2
Fore
SplineSet
78 0 m 1,0,-1
 78 690 l 1,1,-1
 280 690 l 1,2,-1
 456 314 l 1,3,-1
 632 690 l 1,4,-1
 834 690 l 1,5,-1
 834 0 l 1,6,-1
 660 0 l 1,7,-1
 660 372 l 1,8,-1
 526 85 l 1,9,-1
 386 85 l 1,10,-1
 252 372 l 1,11,-1
 252 0 l 1,12,-1
 78 0 l 1,0,-1
EndSplineSet
EndChar

StartChar: N
Encoding: 48 78 48
Width: 747
Flags: W
LayerCount: 2
Fore
SplineSet
78 0 m 1,0,-1
 78 690 l 1,1,-1
 266 690 l 1,2,-1
 495 290 l 1,3,-1
 495 690 l 1,4,-1
 669 690 l 1,5,-1
 669 0 l 1,6,-1
 482 0 l 1,7,-1
 252 400 l 1,8,-1
 252 0 l 1,9,-1
 78 0 l 1,0,-1
EndSplineSet
EndChar

StartChar: O
Encoding: 49 79 49
Width: 712
Flags: W
LayerCount: 2
Fore
SplineSet
68 176 m 2,0,-1
 68 514 l 2,1,2
 68 690 68 690 244 690 c 2,3,-1
 468 690 l 2,4,5
 644 690 644 690 644 514 c 2,6,-1
 644 176 l 2,7,8
 644 0 644 0 468 0 c 2,9,-1
 244 0 l 2,10,11
 68 0 68 0 68 176 c 2,0,-1
242 168 m 2,12,13
 242 157 242 157 253 157 c 2,14,-1
 459 157 l 2,15,16
 470 157 470 157 470 168 c 2,17,-1
 470 522 l 2,18,19
 470 533 470 533 459 533 c 2,20,-1
 253 533 l 2,21,22
 242 533 242 533 242 522 c 2,23,-1
 242 168 l 2,12,13
EndSplineSet
EndChar

StartChar: P
Encoding: 50 80 50
Width: 642
Flags: W
LayerCount: 2
Fore
SplineSet
78 0 m 1,0,-1
 78 690 l 1,1,-1
 418 690 l 2,2,3
 594 690 594 690 594 514 c 2,4,-1
 594 378 l 2,5,6
 594 203 594 203 418 203 c 2,7,-1
 252 203 l 1,8,-1
 252 0 l 1,9,-1
 78 0 l 1,0,-1
252 360 m 1,10,-1
 409 360 l 2,11,12
 420 360 420 360 420 371 c 2,13,-1
 420 522 l 2,14,15
 420 533 420 533 409 533 c 2,16,-1
 252 533 l 1,17,-1
 252 360 l 1,10,-1
EndSplineSet
EndChar

StartChar: Q
Encoding: 51 81 51
Width: 712
Flags: W
LayerCount: 2
Fore
SplineSet
68 176 m 2,0,-1
 68 514 l 2,1,2
 68 690 68 690 244 690 c 2,3,-1
 468 690 l 2,4,5
 644 690 644 690 644 514 c 2,6,-1
 644 176 l 2,7,8
 644 40 644 40 540 10 c 1,9,-1
 604 -115 l 1,10,-1
 584 -150 l 1,11,-1
 433 -150 l 1,12,-1
 357 0 l 1,13,-1
 244 0 l 2,14,15
 68 0 68 0 68 176 c 2,0,-1
242 168 m 2,16,17
 242 157 242 157 253 157 c 2,18,-1
 459 157 l 2,19,20
 470 157 470 157 470 168 c 2,21,-1
 470 522 l 2,22,23
 470 533 470 533 459 533 c 2,24,-1
 253 533 l 2,25,26
 242 533 242 533 242 522 c 2,27,-1
 242 168 l 2,16,17
EndSplineSet
EndChar

StartChar: R
Encoding: 52 82 52
Width: 652
Flags: W
LayerCount: 2
Fore
SplineSet
78 0 m 1,0,-1
 78 690 l 1,1,-1
 418 690 l 2,2,3
 594 690 594 690 594 514 c 2,4,-1
 594 398 l 2,5,6
 594 276 594 276 510 238 c 1,7,-1
 614 35 l 1,8,-1
 594 0 l 1,9,-1
 444 0 l 1,10,-1
 330 223 l 1,11,-1
 252 223 l 1,12,-1
 252 0 l 1,13,-1
 78 0 l 1,0,-1
252 380 m 1,14,-1
 409 380 l 2,15,16
 420 380 420 380 420 391 c 2,17,-1
 420 522 l 2,18,19
 420 533 420 533 409 533 c 2,20,-1
 252 533 l 1,21,-1
 252 380 l 1,14,-1
EndSplineSet
EndChar

StartChar: S
Encoding: 53 83 53
Width: 592
Flags: W
LayerCount: 2
Fore
SplineSet
48 60 m 1,0,-1
 48 157 l 1,1,-1
 359 157 l 2,2,3
 370 157 370 157 370 168 c 2,4,-1
 370 236 l 2,5,6
 370 250 370 250 358 252 c 2,7,-1
 173 290 l 2,8,9
 48 314 48 314 48 457 c 2,10,-1
 48 514 l 2,11,12
 48 690 48 690 224 690 c 2,13,-1
 446 690 l 1,14,-1
 524 630 l 1,15,-1
 524 533 l 1,16,-1
 233 533 l 2,17,18
 222 533 222 533 222 522 c 2,19,-1
 222 458 l 2,20,21
 222 445 222 445 234 442 c 2,22,-1
 419 406 l 2,23,24
 544 380 544 380 544 238 c 2,25,-1
 544 176 l 2,26,27
 544 0 544 0 368 0 c 2,28,-1
 126 0 l 1,29,-1
 48 60 l 1,0,-1
EndSplineSet
EndChar

StartChar: T
Encoding: 54 84 54
Width: 622
Flags: W
LayerCount: 2
Fore
SplineSet
24 533 m 1,0,-1
 24 690 l 1,1,-1
 598 690 l 1,2,-1
 598 533 l 1,3,-1
 398 533 l 1,4,-1
 398 0 l 1,5,-1
 224 0 l 1,6,-1
 224 533 l 1,7,-1
 24 533 l 1,0,-1
EndSplineSet
EndChar

StartChar: U
Encoding: 55 85 55
Width: 700
Flags: W
LayerCount: 2
Fore
SplineSet
72 176 m 2,0,-1
 72 690 l 1,1,-1
 246 690 l 1,2,-1
 246 168 l 2,3,4
 246 157 246 157 257 157 c 2,5,-1
 443 157 l 2,6,7
 454 157 454 157 454 168 c 2,8,-1
 454 690 l 1,9,-1
 628 690 l 1,10,-1
 628 176 l 2,11,12
 628 0 628 0 452 0 c 2,13,-1
 248 0 l 2,14,15
 72 0 72 0 72 176 c 2,0,-1
EndSplineSet
EndChar

StartChar: V
Encoding: 56 86 56
Width: 674
Flags: W
LayerCount: 2
Fore
SplineSet
17 658 m 1,0,-1
 38 690 l 1,1,-1
 192 690 l 1,2,-1
 331 157 l 1,3,-1
 343 157 l 1,4,-1
 482 690 l 1,5,-1
 636 690 l 1,6,-1
 657 658 l 1,7,-1
 472 0 l 1,8,-1
 202 0 l 1,9,-1
 17 658 l 1,0,-1
EndSplineSet
EndChar

StartChar: W
Encoding: 57 87 57
Width: 974
Flags: W
LayerCount: 2
Fore
SplineSet
27 658 m 1,0,-1
 50 690 l 1,1,-1
 194 690 l 1,2,-1
 289 157 l 1,3,-1
 298 157 l 1,4,-1
 402 629 l 1,5,-1
 572 629 l 1,6,-1
 676 157 l 1,7,-1
 685 157 l 1,8,-1
 780 690 l 1,9,-1
 924 690 l 1,10,-1
 947 658 l 1,11,-1
 824 0 l 1,12,-1
 550 0 l 1,13,-1
 487 308 l 1,14,-1
 424 0 l 1,15,-1
 150 0 l 1,16,-1
 27 658 l 1,0,-1
EndSplineSet
EndChar

StartChar: X
Encoding: 58 88 58
Width: 664
Flags: W
LayerCount: 2
Fore
SplineSet
27 34 m 1,0,-1
 237 355 l 1,1,-1
 40 656 l 1,2,-1
 56 690 l 1,3,-1
 209 690 l 1,4,-1
 332 495 l 1,5,-1
 455 690 l 1,6,-1
 608 690 l 1,7,-1
 624 656 l 1,8,-1
 427 355 l 1,9,-1
 637 34 l 1,10,-1
 620 0 l 1,11,-1
 468 0 l 1,12,-1
 332 214 l 1,13,-1
 196 0 l 1,14,-1
 44 0 l 1,15,-1
 27 34 l 1,0,-1
EndSplineSet
EndChar

StartChar: Y
Encoding: 59 89 59
Width: 634
Flags: W
LayerCount: 2
Fore
SplineSet
17 658 m 1,0,-1
 37 690 l 1,1,-1
 186 690 l 1,2,-1
 317 425 l 1,3,-1
 448 690 l 1,4,-1
 597 690 l 1,5,-1
 617 658 l 1,6,-1
 404 238 l 1,7,-1
 404 0 l 1,8,-1
 230 0 l 1,9,-1
 230 238 l 1,10,-1
 17 658 l 1,0,-1
EndSplineSet
EndChar

StartChar: Z
Encoding: 60 90 60
Width: 612
Flags: W
LayerCount: 2
Fore
SplineSet
38 0 m 1,0,-1
 38 134 l 1,1,-1
 343 533 l 1,2,-1
 48 533 l 1,3,-1
 48 690 l 1,4,-1
 564 690 l 1,5,-1
 564 556 l 1,6,-1
 259 157 l 1,7,-1
 574 157 l 1,8,-1
 574 0 l 1,9,-1
 38 0 l 1,0,-1
EndSplineSet
EndChar

StartChar: bracketleft
Encoding: 61 91 61
Width: 403
Flags: W
LayerCount: 2
Fore
SplineSet
78 -180 m 1,0,-1
 78 760 l 1,1,-1
 373 760 l 1,2,-1
 373 615 l 1,3,-1
 245 615 l 1,4,-1
 245 -35 l 1,5,-1
 373 -35 l 1,6,-1
 373 -180 l 1,7,-1
 78 -180 l 1,0,-1
EndSplineSet
EndChar

StartChar: backslash
Encoding: 62 92 62
Width: 459
Flags: W
LayerCount: 2
Fore
SplineSet
20 702 m 1,0,-1
 160 752 l 1,1,-1
 439 -12 l 1,2,-1
 300 -62 l 1,3,-1
 20 702 l 1,0,-1
EndSplineSet
EndChar

StartChar: bracketright
Encoding: 63 93 63
Width: 403
Flags: W
LayerCount: 2
Fore
SplineSet
30 -35 m 1,0,-1
 158 -35 l 1,1,-1
 158 615 l 1,2,-1
 30 615 l 1,3,-1
 30 760 l 1,4,-1
 325 760 l 1,5,-1
 325 -180 l 1,6,-1
 30 -180 l 1,7,-1
 30 -35 l 1,0,-1
EndSplineSet
EndChar

StartChar: asciicircum
Encoding: 64 94 64
Width: 576
Flags: W
LayerCount: 2
Fore
SplineSet
28 362 m 1,0,-1
 208 690 l 1,1,-1
 368 690 l 1,2,-1
 548 362 l 1,3,-1
 422 292 l 1,4,-1
 288 538 l 1,5,-1
 154 292 l 1,6,-1
 28 362 l 1,0,-1
EndSplineSet
EndChar

StartChar: underscore
Encoding: 65 95 65
Width: 580
Flags: W
LayerCount: 2
Fore
SplineSet
40 -58 m 1,0,-1
 540 -58 l 1,1,-1
 540 -200 l 1,2,-1
 40 -200 l 1,3,-1
 40 -58 l 1,0,-1
EndSplineSet
EndChar

StartChar: a
Encoding: 67 97 67
Width: 554
Flags: W
LayerCount: 2
Fore
SplineSet
208 0 m 2,0,1
 40 0 40 0 40 163 c 128,-1,2
 40 326 40 326 208 326 c 2,3,-1
 323 326 l 1,4,-1
 323 374 l 2,5,6
 323 387 323 387 310 387 c 2,7,-1
 99 387 l 1,8,-1
 99 480 l 1,9,-1
 169 532 l 1,10,-1
 322 532 l 2,11,12
 490 532 490 532 490 364 c 2,13,-1
 490 0 l 1,14,-1
 208 0 l 2,0,1
207 158 m 2,15,16
 207 145 207 145 220 145 c 2,17,-1
 323 145 l 1,18,-1
 323 200 l 1,19,-1
 220 200 l 2,20,21
 207 200 207 200 207 187 c 2,22,-1
 207 158 l 2,15,16
EndSplineSet
EndChar

StartChar: b
Encoding: 68 98 68
Width: 594
Flags: W
LayerCount: 2
Fore
SplineSet
68 0 m 1,0,-1
 68 740 l 1,1,-1
 235 740 l 1,2,-1
 235 532 l 1,3,-1
 366 532 l 2,4,5
 534 532 534 532 534 364 c 2,6,-1
 534 168 l 2,7,8
 534 0 534 0 366 0 c 2,9,-1
 68 0 l 1,0,-1
235 145 m 1,10,-1
 354 145 l 2,11,12
 367 145 367 145 367 158 c 2,13,-1
 367 374 l 2,14,15
 367 387 367 387 354 387 c 2,16,-1
 235 387 l 1,17,-1
 235 145 l 1,10,-1
EndSplineSet
EndChar

StartChar: c
Encoding: 69 99 69
Width: 525
Flags: W
LayerCount: 2
Fore
SplineSet
60 168 m 2,0,-1
 60 364 l 2,1,2
 60 532 60 532 228 532 c 2,3,-1
 409 532 l 1,4,-1
 479 480 l 1,5,-1
 479 387 l 1,6,-1
 240 387 l 2,7,8
 227 387 227 387 227 374 c 2,9,-1
 227 158 l 2,10,11
 227 145 227 145 240 145 c 2,12,-1
 479 145 l 1,13,-1
 479 52 l 1,14,-1
 409 0 l 1,15,-1
 228 0 l 2,16,17
 60 0 60 0 60 168 c 2,0,-1
EndSplineSet
EndChar

StartChar: d
Encoding: 70 100 70
Width: 594
Flags: W
LayerCount: 2
Fore
SplineSet
60 168 m 2,0,-1
 60 364 l 2,1,2
 60 532 60 532 228 532 c 2,3,-1
 359 532 l 1,4,-1
 359 740 l 1,5,-1
 526 740 l 1,6,-1
 526 0 l 1,7,-1
 228 0 l 2,8,9
 60 0 60 0 60 168 c 2,0,-1
227 158 m 2,10,11
 227 145 227 145 240 145 c 2,12,-1
 359 145 l 1,13,-1
 359 387 l 1,14,-1
 240 387 l 2,15,16
 227 387 227 387 227 374 c 2,17,-1
 227 158 l 2,10,11
EndSplineSet
EndChar

StartChar: e
Encoding: 71 101 71
Width: 586
Flags: W
LayerCount: 2
Fore
SplineSet
60 168 m 2,0,-1
 60 364 l 2,1,2
 60 532 60 532 228 532 c 2,3,-1
 358 532 l 2,4,5
 526 532 526 532 526 364 c 2,6,-1
 526 205 l 1,7,-1
 227 205 l 1,8,-1
 227 158 l 2,9,10
 227 145 227 145 240 145 c 2,11,-1
 506 145 l 1,12,-1
 506 52 l 1,13,-1
 436 0 l 1,14,-1
 228 0 l 2,15,16
 60 0 60 0 60 168 c 2,0,-1
227 331 m 1,17,-1
 359 331 l 1,18,-1
 359 374 l 2,19,20
 359 387 359 387 346 387 c 2,21,-1
 240 387 l 2,22,23
 227 387 227 387 227 374 c 2,24,-1
 227 331 l 1,17,-1
EndSplineSet
EndChar

StartChar: f
Encoding: 72 102 72
Width: 428
Flags: W
LayerCount: 2
Fore
SplineSet
68 0 m 1,0,-1
 68 572 l 2,1,2
 68 740 68 740 236 740 c 2,3,-1
 338 740 l 1,4,-1
 408 688 l 1,5,-1
 408 595 l 1,6,-1
 248 595 l 2,7,8
 235 595 235 595 235 582 c 2,9,-1
 235 532 l 1,10,-1
 398 532 l 1,11,-1
 398 387 l 1,12,-1
 235 387 l 1,13,-1
 235 0 l 1,14,-1
 68 0 l 1,0,-1
EndSplineSet
EndChar

StartChar: g
Encoding: 73 103 73
Width: 582
Flags: W
LayerCount: 2
Fore
SplineSet
54 168 m 2,0,-1
 54 364 l 2,1,2
 54 532 54 532 222 532 c 2,3,-1
 520 532 l 1,4,-1
 520 -32 l 2,5,6
 520 -200 520 -200 352 -200 c 2,7,-1
 172 -200 l 1,8,-1
 102 -148 l 1,9,-1
 102 -55 l 1,10,-1
 340 -55 l 2,11,12
 353 -55 353 -55 353 -42 c 2,13,-1
 353 0 l 1,14,-1
 222 0 l 2,15,16
 54 0 54 0 54 168 c 2,0,-1
221 158 m 2,17,18
 221 145 221 145 234 145 c 2,19,-1
 353 145 l 1,20,-1
 353 387 l 1,21,-1
 234 387 l 2,22,23
 221 387 221 387 221 374 c 2,24,-1
 221 158 l 2,17,18
EndSplineSet
EndChar

StartChar: h
Encoding: 74 104 74
Width: 598
Flags: W
LayerCount: 2
Fore
SplineSet
68 0 m 1,0,-1
 68 740 l 1,1,-1
 235 740 l 1,2,-1
 235 532 l 1,3,-1
 366 532 l 2,4,5
 534 532 534 532 534 364 c 2,6,-1
 534 0 l 1,7,-1
 367 0 l 1,8,-1
 367 374 l 2,9,10
 367 387 367 387 354 387 c 2,11,-1
 235 387 l 1,12,-1
 235 0 l 1,13,-1
 68 0 l 1,0,-1
EndSplineSet
EndChar

StartChar: i
Encoding: 75 105 75
Width: 303
Flags: W
LayerCount: 2
Fore
SplineSet
66 614 m 1,0,-1
 66 769 l 1,1,-1
 237 769 l 1,2,-1
 237 614 l 1,3,-1
 66 614 l 1,0,-1
68 0 m 1,4,-1
 68 532 l 1,5,-1
 235 532 l 1,6,-1
 235 0 l 1,7,-1
 68 0 l 1,4,-1
EndSplineSet
EndChar

StartChar: j
Encoding: 76 106 76
Width: 303
Flags: W
LayerCount: 2
Fore
SplineSet
-11 -70 m 1,0,1
 68 -64 68 -64 68 14 c 2,2,-1
 68 532 l 1,3,-1
 235 532 l 1,4,-1
 235 35 l 2,5,6
 235 -211 235 -211 -11 -211 c 1,7,-1
 -11 -70 l 1,0,1
66 614 m 1,8,-1
 66 769 l 1,9,-1
 237 769 l 1,10,-1
 237 614 l 1,11,-1
 66 614 l 1,8,-1
EndSplineSet
EndChar

StartChar: k
Encoding: 77 107 77
Width: 606
Flags: W
LayerCount: 2
Fore
SplineSet
68 0 m 1,0,-1
 68 740 l 1,1,-1
 235 740 l 1,2,-1
 235 366 l 1,3,-1
 389 532 l 1,4,-1
 554 532 l 1,5,-1
 567 505 l 1,6,-1
 386 311 l 1,7,-1
 581 27 l 1,8,-1
 568 0 l 1,9,-1
 404 0 l 1,10,-1
 276 192 l 1,11,-1
 235 147 l 1,12,-1
 235 0 l 1,13,-1
 68 0 l 1,0,-1
EndSplineSet
EndChar

StartChar: l
Encoding: 78 108 78
Width: 335
Flags: W
LayerCount: 2
Fore
SplineSet
64 217 m 2,0,-1
 64 740 l 1,1,-1
 231 740 l 1,2,-1
 231 200 l 2,3,4
 231 141 231 141 292 134 c 1,5,-1
 292 -11 l 1,6,7
 64 -11 64 -11 64 217 c 2,0,-1
EndSplineSet
EndChar

StartChar: m
Encoding: 79 109 79
Width: 908
Flags: W
LayerCount: 2
Fore
SplineSet
68 0 m 1,0,-1
 68 532 l 1,1,-1
 676 532 l 2,2,3
 844 532 844 532 844 364 c 2,4,-1
 844 0 l 1,5,-1
 677 0 l 1,6,-1
 677 374 l 2,7,8
 677 387 677 387 664 387 c 2,9,-1
 540 387 l 1,10,-1
 540 0 l 1,11,-1
 372 0 l 1,12,-1
 372 387 l 1,13,-1
 235 387 l 1,14,-1
 235 0 l 1,15,-1
 68 0 l 1,0,-1
EndSplineSet
EndChar

StartChar: n
Encoding: 80 110 80
Width: 598
Flags: W
LayerCount: 2
Fore
SplineSet
68 0 m 1,0,-1
 68 532 l 1,1,-1
 366 532 l 2,2,3
 534 532 534 532 534 364 c 2,4,-1
 534 0 l 1,5,-1
 367 0 l 1,6,-1
 367 374 l 2,7,8
 367 387 367 387 354 387 c 2,9,-1
 235 387 l 1,10,-1
 235 0 l 1,11,-1
 68 0 l 1,0,-1
EndSplineSet
EndChar

StartChar: o
Encoding: 81 111 81
Width: 596
Flags: W
LayerCount: 2
Fore
SplineSet
60 168 m 2,0,-1
 60 364 l 2,1,2
 60 532 60 532 228 532 c 2,3,-1
 368 532 l 2,4,5
 536 532 536 532 536 364 c 2,6,-1
 536 168 l 2,7,8
 536 0 536 0 368 0 c 2,9,-1
 228 0 l 2,10,11
 60 0 60 0 60 168 c 2,0,-1
227 158 m 2,12,13
 227 145 227 145 240 145 c 2,14,-1
 356 145 l 2,15,16
 369 145 369 145 369 158 c 2,17,-1
 369 374 l 2,18,19
 369 387 369 387 356 387 c 2,20,-1
 240 387 l 2,21,22
 227 387 227 387 227 374 c 2,23,-1
 227 158 l 2,12,13
EndSplineSet
EndChar

StartChar: p
Encoding: 82 112 82
Width: 594
Flags: W
LayerCount: 2
Fore
SplineSet
68 -200 m 1,0,-1
 68 532 l 1,1,-1
 366 532 l 2,2,3
 534 532 534 532 534 364 c 2,4,-1
 534 168 l 2,5,6
 534 0 534 0 366 0 c 2,7,-1
 235 0 l 1,8,-1
 235 -200 l 1,9,-1
 68 -200 l 1,0,-1
235 145 m 1,10,-1
 354 145 l 2,11,12
 367 145 367 145 367 158 c 2,13,-1
 367 374 l 2,14,15
 367 387 367 387 354 387 c 2,16,-1
 235 387 l 1,17,-1
 235 145 l 1,10,-1
EndSplineSet
EndChar

StartChar: q
Encoding: 83 113 83
Width: 594
Flags: W
LayerCount: 2
Fore
SplineSet
60 168 m 2,0,-1
 60 364 l 2,1,2
 60 532 60 532 228 532 c 2,3,-1
 526 532 l 1,4,-1
 526 -200 l 1,5,-1
 359 -200 l 1,6,-1
 359 0 l 1,7,-1
 228 0 l 2,8,9
 60 0 60 0 60 168 c 2,0,-1
227 158 m 2,10,11
 227 145 227 145 240 145 c 2,12,-1
 359 145 l 1,13,-1
 359 387 l 1,14,-1
 240 387 l 2,15,16
 227 387 227 387 227 374 c 2,17,-1
 227 158 l 2,10,11
EndSplineSet
EndChar

StartChar: r
Encoding: 84 114 84
Width: 420
Flags: W
LayerCount: 2
Fore
SplineSet
64 0 m 1,0,-1
 64 460 l 1,1,2
 102 532 102 532 212 532 c 2,3,-1
 324 532 l 1,4,-1
 394 480 l 1,5,-1
 394 387 l 1,6,-1
 262 387 l 2,7,8
 238 387 238 387 231 376 c 1,9,-1
 231 0 l 1,10,-1
 64 0 l 1,0,-1
EndSplineSet
EndChar

StartChar: s
Encoding: 85 115 85
Width: 512
Flags: W
LayerCount: 2
Fore
SplineSet
51 52 m 1,0,-1
 51 145 l 1,1,-1
 281 145 l 2,2,3
 297 145 297 145 297 167 c 256,4,5
 297 190 297 190 282 193 c 2,6,-1
 180 210 l 2,7,8
 51 232 51 232 51 363 c 256,9,10
 51 532 51 532 219 532 c 2,11,-1
 368 532 l 1,12,-1
 438 480 l 1,13,-1
 438 387 l 1,14,-1
 232 387 l 2,15,16
 216 387 216 387 216 365 c 256,17,18
 216 336 216 336 232 334 c 2,19,-1
 334 317 l 2,20,21
 462 296 462 296 462 169 c 256,22,23
 462 0 462 0 294 0 c 2,24,-1
 121 0 l 1,25,-1
 51 52 l 1,0,-1
EndSplineSet
EndChar

StartChar: t
Encoding: 86 116 86
Width: 440
Flags: W
LayerCount: 2
Fore
SplineSet
64 168 m 2,0,-1
 64 690 l 1,1,-1
 231 690 l 1,2,-1
 231 532 l 1,3,-1
 394 532 l 1,4,-1
 394 387 l 1,5,-1
 231 387 l 1,6,-1
 231 158 l 2,7,8
 231 145 231 145 244 145 c 2,9,-1
 404 145 l 1,10,-1
 404 52 l 1,11,-1
 334 0 l 1,12,-1
 232 0 l 2,13,14
 64 0 64 0 64 168 c 2,0,-1
EndSplineSet
EndChar

StartChar: u
Encoding: 87 117 87
Width: 598
Flags: W
LayerCount: 2
Fore
SplineSet
64 168 m 2,0,-1
 64 532 l 1,1,-1
 231 532 l 1,2,-1
 231 158 l 2,3,4
 231 145 231 145 244 145 c 2,5,-1
 363 145 l 1,6,-1
 363 532 l 1,7,-1
 530 532 l 1,8,-1
 530 0 l 1,9,-1
 232 0 l 2,10,11
 64 0 64 0 64 168 c 2,0,-1
EndSplineSet
EndChar

StartChar: v
Encoding: 88 118 88
Width: 574
Flags: W
LayerCount: 2
Fore
SplineSet
17 508 m 1,0,-1
 34 532 l 1,1,-1
 178 532 l 1,2,-1
 284 145 l 1,3,-1
 290 145 l 1,4,-1
 396 532 l 1,5,-1
 540 532 l 1,6,-1
 557 508 l 1,7,-1
 406 0 l 1,8,-1
 168 0 l 1,9,-1
 17 508 l 1,0,-1
EndSplineSet
EndChar

StartChar: w
Encoding: 89 119 89
Width: 846
Flags: W
LayerCount: 2
Fore
SplineSet
21 508 m 1,0,-1
 38 532 l 1,1,-1
 179 532 l 1,2,-1
 246 145 l 1,3,-1
 250 145 l 1,4,-1
 331 532 l 1,5,-1
 515 532 l 1,6,-1
 596 145 l 1,7,-1
 600 145 l 1,8,-1
 667 532 l 1,9,-1
 808 532 l 1,10,-1
 825 508 l 1,11,-1
 727 0 l 1,12,-1
 482 0 l 1,13,-1
 423 330 l 1,14,-1
 364 0 l 1,15,-1
 119 0 l 1,16,-1
 21 508 l 1,0,-1
EndSplineSet
EndChar

StartChar: x
Encoding: 90 120 90
Width: 574
Flags: W
LayerCount: 2
Fore
SplineSet
27 27 m 1,0,-1
 194 268 l 1,1,-1
 31 505 l 1,2,-1
 44 532 l 1,3,-1
 198 532 l 1,4,-1
 287 394 l 1,5,-1
 376 532 l 1,6,-1
 530 532 l 1,7,-1
 543 505 l 1,8,-1
 380 268 l 1,9,-1
 547 27 l 1,10,-1
 534 0 l 1,11,-1
 380 0 l 1,12,-1
 287 141 l 1,13,-1
 194 0 l 1,14,-1
 40 0 l 1,15,-1
 27 27 l 1,0,-1
EndSplineSet
EndChar

StartChar: y
Encoding: 91 121 91
Width: 574
Flags: W
LayerCount: 2
Fore
SplineSet
17 508 m 1,0,-1
 34 532 l 1,1,-1
 178 532 l 1,2,-1
 284 145 l 1,3,-1
 290 145 l 1,4,-1
 396 532 l 1,5,-1
 540 532 l 1,6,-1
 557 508 l 1,7,-1
 348 -200 l 1,8,-1
 204 -200 l 1,9,-1
 187 -176 l 1,10,-1
 244 0 l 1,11,-1
 168 0 l 1,12,-1
 17 508 l 1,0,-1
EndSplineSet
EndChar

StartChar: z
Encoding: 92 122 92
Width: 522
Flags: W
LayerCount: 2
Fore
SplineSet
38 0 m 1,0,-1
 38 125 l 1,1,-1
 259 387 l 1,2,-1
 48 387 l 1,3,-1
 48 532 l 1,4,-1
 474 532 l 1,5,-1
 474 407 l 1,6,-1
 254 145 l 1,7,-1
 484 145 l 1,8,-1
 484 0 l 1,9,-1
 38 0 l 1,0,-1
EndSplineSet
EndChar

StartChar: braceleft
Encoding: 93 123 93
Width: 440
Flags: W
LayerCount: 2
Fore
SplineSet
50 242 m 1,0,-1
 50 324 l 1,1,-1
 125 398 l 1,2,-1
 125 592 l 2,3,4
 125 760 125 760 293 760 c 2,5,-1
 410 760 l 1,6,-1
 410 615 l 1,7,-1
 305 615 l 2,8,9
 292 615 292 615 292 602 c 2,10,-1
 292 360 l 1,11,-1
 214 282 l 1,12,-1
 292 204 l 1,13,-1
 292 -22 l 2,14,15
 292 -35 292 -35 305 -35 c 2,16,-1
 410 -35 l 1,17,-1
 410 -180 l 1,18,-1
 293 -180 l 2,19,20
 125 -180 125 -180 125 -12 c 2,21,-1
 125 166 l 1,22,-1
 50 242 l 1,0,-1
EndSplineSet
EndChar

StartChar: bar
Encoding: 94 124 94
Width: 331
Flags: W
LayerCount: 2
Fore
SplineSet
91 -200 m 1,0,-1
 91 740 l 1,1,-1
 240 740 l 1,2,-1
 240 -200 l 1,3,-1
 91 -200 l 1,0,-1
EndSplineSet
EndChar

StartChar: braceright
Encoding: 95 125 95
Width: 440
Flags: W
LayerCount: 2
Fore
SplineSet
30 -35 m 1,0,-1
 135 -35 l 2,1,2
 148 -35 148 -35 148 -22 c 2,3,-1
 148 204 l 1,4,-1
 226 282 l 1,5,-1
 148 360 l 1,6,-1
 148 602 l 2,7,8
 148 615 148 615 135 615 c 2,9,-1
 30 615 l 1,10,-1
 30 760 l 1,11,-1
 147 760 l 2,12,13
 315 760 315 760 315 592 c 2,14,-1
 315 398 l 1,15,-1
 390 324 l 1,16,-1
 390 242 l 1,17,-1
 315 166 l 1,18,-1
 315 -12 l 2,19,20
 315 -180 315 -180 147 -180 c 2,21,-1
 30 -180 l 1,22,-1
 30 -35 l 1,0,-1
EndSplineSet
EndChar

StartChar: asciitilde
Encoding: 96 126 96
Width: 578
Flags: W
LayerCount: 2
Fore
SplineSet
24 330 m 1,0,-1
 120 426 l 2,1,2
 156 462 156 462 209 462 c 128,-1,3
 262 462 262 462 298 426 c 2,4,-1
 360 364 l 2,5,6
 365 359 365 359 369 359 c 128,-1,7
 373 359 373 359 378 364 c 2,8,-1
 454 440 l 1,9,-1
 554 340 l 1,10,-1
 458 244 l 2,11,12
 422 208 422 208 369 208 c 128,-1,13
 316 208 316 208 280 244 c 2,14,-1
 218 306 l 2,15,16
 213 311 213 311 209 311 c 128,-1,17
 205 311 205 311 200 306 c 2,18,-1
 124 230 l 1,19,-1
 24 330 l 1,0,-1
EndSplineSet
EndChar

StartChar: exclamdown
Encoding: 98 161 98
Width: 287
Flags: W
LayerCount: 2
Fore
SplineSet
56 371 m 1,0,-1
 56 532 l 1,1,-1
 231 532 l 1,2,-1
 231 371 l 1,3,-1
 56 371 l 1,0,-1
56 -158 m 1,4,-1
 56 304 l 1,5,-1
 230 304 l 1,6,-1
 230 -158 l 1,7,-1
 56 -158 l 1,4,-1
EndSplineSet
EndChar

StartChar: cent
Encoding: 99 162 99
Width: 578
Flags: W
LayerCount: 2
Fore
SplineSet
76 168 m 2,0,-1
 76 364 l 2,1,2
 76 532 76 532 244 532 c 2,3,-1
 247 532 l 1,4,-1
 247 642 l 1,5,-1
 385 642 l 1,6,-1
 385 532 l 1,7,-1
 425 532 l 1,8,-1
 495 480 l 1,9,-1
 495 387 l 1,10,-1
 256 387 l 2,11,12
 243 387 243 387 243 374 c 2,13,-1
 243 158 l 2,14,15
 243 145 243 145 256 145 c 2,16,-1
 495 145 l 1,17,-1
 495 52 l 1,18,-1
 425 0 l 1,19,-1
 385 0 l 1,20,-1
 385 -110 l 1,21,-1
 247 -110 l 1,22,-1
 247 0 l 1,23,-1
 244 0 l 2,24,25
 76 0 76 0 76 168 c 2,0,-1
EndSplineSet
EndChar

StartChar: sterling
Encoding: 100 163 100
Width: 578
Flags: W
LayerCount: 2
Fore
SplineSet
49 0 m 1,0,-1
 49 157 l 1,1,-1
 136 157 l 1,2,-1
 136 276 l 1,3,-1
 49 276 l 1,4,-1
 49 414 l 1,5,-1
 136 414 l 1,6,-1
 136 514 l 2,7,8
 136 690 136 690 312 690 c 2,9,-1
 441 690 l 1,10,-1
 519 630 l 1,11,-1
 519 533 l 1,12,-1
 321 533 l 2,13,14
 310 533 310 533 310 522 c 2,15,-1
 310 414 l 1,16,-1
 433 414 l 1,17,-1
 433 276 l 1,18,-1
 310 276 l 1,19,-1
 310 157 l 1,20,-1
 539 157 l 1,21,-1
 539 0 l 1,22,-1
 49 0 l 1,0,-1
EndSplineSet
EndChar

StartChar: currency
Encoding: 101 164 101
Width: 578
Flags: W
LayerCount: 2
Fore
SplineSet
36 180 m 1,0,-1
 125 269 l 1,1,-1
 125 431 l 1,2,-1
 36 520 l 1,3,-1
 124 608 l 1,4,-1
 213 519 l 1,5,-1
 365 519 l 1,6,-1
 454 608 l 1,7,-1
 542 520 l 1,8,-1
 453 431 l 1,9,-1
 453 269 l 1,10,-1
 542 180 l 1,11,-1
 454 92 l 1,12,-1
 365 181 l 1,13,-1
 213 181 l 1,14,-1
 124 92 l 1,15,-1
 36 180 l 1,0,-1
255 310 m 2,16,17
 255 306 255 306 259 306 c 2,18,-1
 319 306 l 2,19,20
 323 306 323 306 323 310 c 2,21,-1
 323 390 l 2,22,23
 323 394 323 394 319 394 c 2,24,-1
 259 394 l 2,25,26
 255 394 255 394 255 390 c 2,27,-1
 255 310 l 2,16,17
EndSplineSet
EndChar

StartChar: yen
Encoding: 102 165 102
Width: 578
Flags: W
LayerCount: 2
Fore
SplineSet
18 690 m 1,0,-1
 167 690 l 1,1,-1
 289 445 l 1,2,-1
 411 690 l 1,3,-1
 560 690 l 1,4,-1
 580 658 l 1,5,-1
 416 336 l 1,6,-1
 496 336 l 1,7,-1
 496 244 l 1,8,-1
 376 244 l 1,9,-1
 376 184 l 1,10,-1
 496 184 l 1,11,-1
 496 92 l 1,12,-1
 376 92 l 1,13,-1
 376 0 l 1,14,-1
 202 0 l 1,15,-1
 202 92 l 1,16,-1
 82 92 l 1,17,-1
 82 184 l 1,18,-1
 202 184 l 1,19,-1
 202 244 l 1,20,-1
 82 244 l 1,21,-1
 82 336 l 1,22,-1
 162 336 l 1,23,-1
 -2 658 l 1,24,-1
 18 690 l 1,0,-1
EndSplineSet
EndChar

StartChar: brokenbar
Encoding: 103 166 103
Width: 331
Flags: W
LayerCount: 2
Fore
SplineSet
91 179 m 1,0,-1
 240 179 l 1,1,-1
 240 -200 l 1,2,-1
 91 -200 l 1,3,-1
 91 179 l 1,0,-1
91 361 m 1,4,-1
 91 740 l 1,5,-1
 240 740 l 1,6,-1
 240 361 l 1,7,-1
 91 361 l 1,4,-1
EndSplineSet
EndChar

StartChar: section
Encoding: 104 167 104
Width: 546
Flags: W
LayerCount: 2
Fore
SplineSet
68 45 m 1,0,-1
 298 45 l 2,1,2
 314 45 314 45 314 67 c 256,3,4
 314 90 314 90 299 93 c 2,5,-1
 197 110 l 2,6,7
 68 132 68 132 68 263 c 2,8,-1
 68 358 l 1,9,-1
 116 406 l 1,10,11
 68 444 68 444 68 521 c 256,12,13
 68 690 68 690 236 690 c 2,14,-1
 386 690 l 1,15,-1
 456 638 l 1,16,-1
 456 545 l 1,17,-1
 250 545 l 2,18,19
 234 545 234 545 234 523 c 256,20,21
 234 500 234 500 248 497 c 2,22,-1
 350 480 l 2,23,24
 480 458 480 458 480 327 c 2,25,-1
 480 232 l 1,26,-1
 432 184 l 1,27,28
 480 146 480 146 480 69 c 256,29,30
 480 -100 480 -100 312 -100 c 2,31,-1
 138 -100 l 1,32,-1
 68 -48 l 1,33,-1
 68 45 l 1,0,-1
234 265 m 2,34,35
 234 236 234 236 248 234 c 2,36,-1
 314 224 l 1,37,-1
 314 325 l 2,38,39
 314 354 314 354 299 356 c 2,40,-1
 234 366 l 1,41,-1
 234 265 l 2,34,35
EndSplineSet
EndChar

StartChar: copyright
Encoding: 106 169 106
Width: 846
Flags: W
LayerCount: 2
Fore
SplineSet
68 125 m 2,0,-1
 68 565 l 2,1,2
 68 690 68 690 193 690 c 2,3,-1
 653 690 l 2,4,5
 778 690 778 690 778 565 c 2,6,-1
 778 125 l 2,7,8
 778 0 778 0 653 0 c 2,9,-1
 193 0 l 2,10,11
 68 0 68 0 68 125 c 2,0,-1
191 115 m 2,12,13
 191 111 191 111 195 111 c 2,14,-1
 651 111 l 2,15,16
 655 111 655 111 655 115 c 2,17,-1
 655 575 l 2,18,19
 655 579 655 579 651 579 c 2,20,-1
 195 579 l 2,21,22
 191 579 191 579 191 575 c 2,23,-1
 191 115 l 2,12,13
256 295 m 2,24,-1
 256 395 l 2,25,26
 256 528 256 528 388 528 c 2,27,-1
 506 528 l 1,28,-1
 560 485 l 1,29,-1
 560 410 l 1,30,-1
 390 410 l 2,31,32
 386 410 386 410 386 406 c 2,33,-1
 386 284 l 2,34,35
 386 280 386 280 390 280 c 2,36,-1
 560 280 l 1,37,-1
 560 205 l 1,38,-1
 506 162 l 1,39,-1
 388 162 l 2,40,41
 256 162 256 162 256 295 c 2,24,-1
EndSplineSet
EndChar

StartChar: ordfeminine
Encoding: 107 170 107
Width: 406
Flags: W
LayerCount: 2
Fore
SplineSet
31 417 m 2,0,-1
 31 419 l 2,1,2
 31 542 31 542 174 542 c 2,3,-1
 235 542 l 1,4,-1
 235 568 l 2,5,6
 235 572 235 572 231 572 c 2,7,-1
 73 572 l 1,8,-1
 73 647 l 1,9,-1
 128 690 l 1,10,-1
 232 690 l 2,11,12
 365 690 365 690 365 557 c 2,13,-1
 365 294 l 1,14,-1
 174 294 l 2,15,16
 31 294 31 294 31 417 c 2,0,-1
161 416 m 2,17,18
 161 412 161 412 165 412 c 2,19,-1
 235 412 l 1,20,-1
 235 442 l 1,21,-1
 165 442 l 2,22,23
 161 442 161 442 161 438 c 2,24,-1
 161 416 l 2,17,18
EndSplineSet
EndChar

StartChar: logicalnot
Encoding: 109 172 109
Width: 578
Flags: W
LayerCount: 2
Fore
SplineSet
58 314 m 1,0,-1
 58 456 l 1,1,-1
 520 456 l 1,2,-1
 520 144 l 1,3,-1
 371 144 l 1,4,-1
 371 314 l 1,5,-1
 58 314 l 1,0,-1
EndSplineSet
EndChar

StartChar: registered
Encoding: 111 174 111
Width: 846
Flags: W
LayerCount: 2
Fore
SplineSet
68 125 m 2,0,-1
 68 565 l 2,1,2
 68 690 68 690 193 690 c 2,3,-1
 653 690 l 2,4,5
 778 690 778 690 778 565 c 2,6,-1
 778 125 l 2,7,8
 778 0 778 0 653 0 c 2,9,-1
 193 0 l 2,10,11
 68 0 68 0 68 125 c 2,0,-1
191 115 m 2,12,13
 191 111 191 111 195 111 c 2,14,-1
 651 111 l 2,15,16
 655 111 655 111 655 115 c 2,17,-1
 655 575 l 2,18,19
 655 579 655 579 651 579 c 2,20,-1
 195 579 l 2,21,22
 191 579 191 579 191 575 c 2,23,-1
 191 115 l 2,12,13
268 162 m 1,24,-1
 268 528 l 1,25,-1
 448 528 l 2,26,27
 582 528 582 528 582 395 c 2,28,-1
 582 390 l 2,29,30
 582 314 582 314 538 278 c 1,31,-1
 582 189 l 1,32,-1
 568 162 l 1,33,-1
 454 162 l 1,34,-1
 406 258 l 1,35,-1
 398 258 l 1,36,-1
 398 162 l 1,37,-1
 268 162 l 1,24,-1
398 376 m 1,38,-1
 448 376 l 2,39,40
 452 376 452 376 452 380 c 2,41,-1
 452 406 l 2,42,43
 452 410 452 410 448 410 c 2,44,-1
 398 410 l 1,45,-1
 398 376 l 1,38,-1
EndSplineSet
EndChar

StartChar: degree
Encoding: 113 176 113
Width: 413
Flags: W
LayerCount: 2
Fore
SplineSet
48 495 m 2,0,-1
 48 565 l 2,1,2
 48 690 48 690 173 690 c 2,3,-1
 240 690 l 2,4,5
 365 690 365 690 365 565 c 2,6,-1
 365 495 l 2,7,8
 365 370 365 370 240 370 c 2,9,-1
 173 370 l 2,10,11
 48 370 48 370 48 495 c 2,0,-1
171 485 m 2,12,13
 171 481 171 481 175 481 c 2,14,-1
 238 481 l 2,15,16
 242 481 242 481 242 485 c 2,17,-1
 242 575 l 2,18,19
 242 579 242 579 238 579 c 2,20,-1
 175 579 l 2,21,22
 171 579 171 579 171 575 c 2,23,-1
 171 485 l 2,12,13
EndSplineSet
EndChar

StartChar: plusminus
Encoding: 114 177 114
Width: 578
Flags: W
LayerCount: 2
Fore
SplineSet
58 0 m 1,0,-1
 58 142 l 1,1,-1
 520 142 l 1,2,-1
 520 0 l 1,3,-1
 58 0 l 1,0,-1
58 314 m 1,4,-1
 58 456 l 1,5,-1
 214 456 l 1,6,-1
 214 604 l 1,7,-1
 364 604 l 1,8,-1
 364 456 l 1,9,-1
 520 456 l 1,10,-1
 520 314 l 1,11,-1
 364 314 l 1,12,-1
 364 166 l 1,13,-1
 214 166 l 1,14,-1
 214 314 l 1,15,-1
 58 314 l 1,4,-1
EndSplineSet
EndChar

StartChar: uni00B2
Encoding: 115 178 115
Width: 369
Flags: W
LayerCount: 2
Fore
SplineSet
31 271 m 1,0,-1
 31 409 l 2,1,2
 31 507 31 507 128 526 c 10,3,-1
 201 540 l 2,4,5
 208 541 208 541 208 550 c 2,6,-1
 208 568 l 2,7,8
 208 572 208 572 204 572 c 2,9,-1
 43 572 l 1,10,-1
 43 647 l 1,11,-1
 98 690 l 1,12,-1
 205 690 l 2,13,14
 338 690 338 690 338 557 c 2,15,-1
 338 544 l 2,16,17
 338 445 338 445 240 426 c 10,18,-1
 168 412 l 2,19,20
 161 411 161 411 161 403 c 2,21,-1
 161 389 l 1,22,-1
 338 389 l 1,23,-1
 338 271 l 1,24,-1
 31 271 l 1,0,-1
EndSplineSet
EndChar

StartChar: uni00B3
Encoding: 116 179 116
Width: 369
Flags: W
LayerCount: 2
Fore
SplineSet
37 314 m 1,0,-1
 37 389 l 1,1,-1
 204 389 l 2,2,3
 208 389 208 389 208 393 c 2,4,-1
 208 419 l 2,5,6
 208 423 208 423 204 423 c 2,7,-1
 81 423 l 1,8,-1
 81 541 l 1,9,-1
 204 541 l 2,10,11
 208 541 208 541 208 545 c 2,12,-1
 208 568 l 2,13,14
 208 572 208 572 204 572 c 2,15,-1
 43 572 l 1,16,-1
 43 647 l 1,17,-1
 98 690 l 1,18,-1
 205 690 l 2,19,20
 338 690 338 690 338 557 c 2,21,-1
 338 548 l 2,22,23
 338 521 338 521 321 504 c 2,24,-1
 298 481 l 1,25,-1
 321 458 l 2,26,27
 338 441 338 441 338 414 c 2,28,-1
 338 404 l 2,29,30
 338 271 338 271 205 271 c 2,31,-1
 92 271 l 1,32,-1
 37 314 l 1,0,-1
EndSplineSet
EndChar

StartChar: mu
Encoding: 118 181 118
Width: 598
Flags: W
LayerCount: 2
Fore
SplineSet
68 -200 m 1,0,-1
 68 532 l 1,1,-1
 235 532 l 1,2,-1
 235 145 l 1,3,-1
 354 145 l 2,4,5
 367 145 367 145 367 158 c 2,6,-1
 367 532 l 1,7,-1
 534 532 l 1,8,-1
 534 168 l 2,9,10
 534 0 534 0 366 0 c 2,11,-1
 235 0 l 1,12,-1
 235 -200 l 1,13,-1
 68 -200 l 1,0,-1
EndSplineSet
EndChar

StartChar: paragraph
Encoding: 119 182 119
Width: 688
Flags: W
LayerCount: 2
Fore
SplineSet
58 345 m 2,0,-1
 58 540 l 2,1,2
 58 690 58 690 208 690 c 2,3,-1
 363 690 l 1,4,-1
 363 195 l 1,5,-1
 208 195 l 2,6,7
 58 195 58 195 58 345 c 2,0,-1
433 -170 m 1,8,-1
 433 690 l 1,9,-1
 600 690 l 1,10,-1
 600 -170 l 1,11,-1
 433 -170 l 1,8,-1
EndSplineSet
EndChar

StartChar: uni00B9
Encoding: 122 185 122
Width: 369
Flags: W
LayerCount: 2
Fore
SplineSet
49 271 m 1,0,-1
 49 389 l 1,1,-1
 130 389 l 1,2,-1
 130 572 l 1,3,-1
 61 572 l 1,4,-1
 61 647 l 1,5,-1
 116 690 l 1,6,-1
 260 690 l 1,7,-1
 260 389 l 1,8,-1
 332 389 l 1,9,-1
 332 271 l 1,10,-1
 49 271 l 1,0,-1
EndSplineSet
EndChar

StartChar: ordmasculine
Encoding: 123 186 123
Width: 436
Flags: W
LayerCount: 2
Fore
SplineSet
41 427 m 2,0,-1
 41 557 l 2,1,2
 41 690 41 690 174 690 c 2,3,-1
 262 690 l 2,4,5
 395 690 395 690 395 557 c 2,6,-1
 395 427 l 2,7,8
 395 294 395 294 262 294 c 2,9,-1
 174 294 l 2,10,11
 41 294 41 294 41 427 c 2,0,-1
171 416 m 2,12,13
 171 412 171 412 175 412 c 2,14,-1
 261 412 l 2,15,16
 265 412 265 412 265 416 c 2,17,-1
 265 568 l 2,18,19
 265 572 265 572 261 572 c 2,20,-1
 175 572 l 2,21,22
 171 572 171 572 171 568 c 2,23,-1
 171 416 l 2,12,13
EndSplineSet
EndChar

StartChar: questiondown
Encoding: 128 191 128
Width: 516
Flags: W
LayerCount: 2
Fore
SplineSet
50 18 m 2,0,-1
 50 88 l 2,1,2
 50 274 50 274 216 274 c 2,3,-1
 220 274 l 1,4,-1
 220 304 l 1,5,-1
 393 304 l 1,6,-1
 393 117 l 1,7,-1
 235 117 l 2,8,9
 224 117 224 117 224 106 c 2,10,-1
 224 10 l 2,11,12
 224 -1 224 -1 235 -1 c 2,13,-1
 496 -1 l 1,14,-1
 496 -98 l 1,15,-1
 418 -158 l 1,16,-1
 226 -158 l 2,17,18
 50 -158 50 -158 50 18 c 2,0,-1
218 371 m 1,19,-1
 218 532 l 1,20,-1
 394 532 l 1,21,-1
 394 371 l 1,22,-1
 218 371 l 1,19,-1
EndSplineSet
EndChar

StartChar: AE
Encoding: 135 198 135
Width: 947
Flags: W
LayerCount: 2
Fore
SplineSet
17 32 m 1,0,-1
 212 690 l 1,1,-1
 897 690 l 1,2,-1
 897 533 l 1,3,-1
 591 533 l 1,4,-1
 591 430 l 1,5,-1
 867 430 l 1,6,-1
 867 273 l 1,7,-1
 591 273 l 1,8,-1
 591 157 l 1,9,-1
 897 157 l 1,10,-1
 897 0 l 1,11,-1
 417 0 l 1,12,-1
 417 123 l 1,13,-1
 218 123 l 1,14,-1
 184 0 l 1,15,-1
 38 0 l 1,16,-1
 17 32 l 1,0,-1
264 280 m 1,17,-1
 417 280 l 1,18,-1
 417 533 l 1,19,-1
 336 533 l 1,20,-1
 264 280 l 1,17,-1
EndSplineSet
EndChar

StartChar: Eth
Encoding: 145 208 145
Width: 711
Flags: W
LayerCount: 2
Fore
SplineSet
20 276 m 1,0,-1
 20 414 l 1,1,-1
 97 414 l 1,2,-1
 97 690 l 1,3,-1
 384 690 l 2,4,5
 653 690 653 690 653 421 c 2,6,-1
 653 269 l 2,7,8
 653 0 653 0 384 0 c 2,9,-1
 97 0 l 1,10,-1
 97 276 l 1,11,-1
 20 276 l 1,0,-1
271 157 m 1,12,-1
 384 157 l 2,13,14
 479 157 479 157 479 252 c 2,15,-1
 479 438 l 2,16,17
 479 533 479 533 384 533 c 2,18,-1
 271 533 l 1,19,-1
 271 414 l 1,20,-1
 375 414 l 1,21,-1
 375 276 l 1,22,-1
 271 276 l 1,23,-1
 271 157 l 1,12,-1
EndSplineSet
EndChar

StartChar: multiply
Encoding: 152 215 152
Width: 578
Flags: W
LayerCount: 2
Fore
SplineSet
58 206 m 1,0,-1
 188 335 l 1,1,-1
 58 464 l 1,2,-1
 160 566 l 1,3,-1
 289 436 l 1,4,-1
 418 566 l 1,5,-1
 520 464 l 1,6,-1
 390 335 l 1,7,-1
 520 206 l 1,8,-1
 418 104 l 1,9,-1
 289 234 l 1,10,-1
 160 104 l 1,11,-1
 58 206 l 1,0,-1
EndSplineSet
EndChar

StartChar: Oslash
Encoding: 153 216 153
Width: 712
Flags: W
LayerCount: 2
Fore
SplineSet
68 176 m 2,0,-1
 68 514 l 2,1,2
 68 690 68 690 244 690 c 2,3,-1
 468 690 l 2,4,5
 644 690 644 690 644 514 c 2,6,-1
 644 176 l 2,7,8
 644 0 644 0 468 0 c 2,9,-1
 244 0 l 2,10,11
 68 0 68 0 68 176 c 2,0,-1
242 306 m 1,12,-1
 470 526 l 1,13,14
 468 533 468 533 459 533 c 2,15,-1
 253 533 l 2,16,17
 242 533 242 533 242 522 c 2,18,-1
 242 306 l 1,12,-1
242 164 m 1,19,20
 244 157 244 157 253 157 c 2,21,-1
 459 157 l 2,22,23
 470 157 470 157 470 168 c 2,24,-1
 470 384 l 1,25,-1
 242 164 l 1,19,20
EndSplineSet
EndChar

StartChar: Thorn
Encoding: 159 222 159
Width: 642
Flags: W
LayerCount: 2
Fore
SplineSet
78 0 m 1,0,-1
 78 690 l 1,1,-1
 252 690 l 1,2,-1
 252 600 l 1,3,-1
 418 600 l 2,4,5
 594 600 594 600 594 424 c 2,6,-1
 594 280 l 2,7,8
 594 104 594 104 418 104 c 2,9,-1
 252 104 l 1,10,-1
 252 0 l 1,11,-1
 78 0 l 1,0,-1
252 261 m 1,12,-1
 409 261 l 2,13,14
 420 261 420 261 420 272 c 2,15,-1
 420 432 l 2,16,17
 420 443 420 443 409 443 c 2,18,-1
 252 443 l 1,19,-1
 252 261 l 1,12,-1
EndSplineSet
EndChar

StartChar: germandbls
Encoding: 160 223 160
Width: 629
Flags: W
LayerCount: 2
Fore
SplineSet
68 0 m 1,0,-1
 68 572 l 2,1,2
 68 740 68 740 236 740 c 2,3,-1
 381 740 l 2,4,5
 549 740 549 740 549 572 c 2,6,-1
 549 491 l 2,7,8
 549 457 549 457 529 433 c 2,9,-1
 494 391 l 1,10,-1
 536 356 l 2,11,12
 569 328 569 328 569 276 c 2,13,-1
 569 168 l 2,14,15
 569 0 569 0 401 0 c 2,16,-1
 353 0 l 1,17,-1
 283 52 l 1,18,-1
 283 145 l 1,19,-1
 389 145 l 2,20,21
 402 145 402 145 402 158 c 2,22,-1
 402 300 l 2,23,24
 402 312 402 312 389 312 c 2,25,-1
 293 312 l 1,26,-1
 293 458 l 1,27,-1
 369 458 l 2,28,29
 382 458 382 458 382 470 c 2,30,-1
 382 582 l 2,31,32
 382 595 382 595 369 595 c 2,33,-1
 248 595 l 2,34,35
 235 595 235 595 235 582 c 2,36,-1
 235 0 l 1,37,-1
 68 0 l 1,0,-1
EndSplineSet
EndChar

StartChar: ae
Encoding: 167 230 167
Width: 856
Flags: W
LayerCount: 2
Fore
SplineSet
208 0 m 2,0,1
 40 0 40 0 40 163 c 128,-1,2
 40 326 40 326 208 326 c 2,3,-1
 325 326 l 1,4,-1
 325 374 l 2,5,6
 325 387 325 387 312 387 c 2,7,-1
 99 387 l 1,8,-1
 99 480 l 1,9,-1
 169 532 l 1,10,-1
 298 532 l 2,11,12
 368 532 368 532 408 492 c 1,13,14
 448 532 448 532 520 532 c 2,15,-1
 628 532 l 2,16,17
 796 532 796 532 796 364 c 2,18,-1
 796 205 l 1,19,-1
 492 205 l 1,20,-1
 492 158 l 2,21,22
 492 145 492 145 505 145 c 2,23,-1
 776 145 l 1,24,-1
 776 52 l 1,25,-1
 706 0 l 1,26,-1
 520 0 l 2,27,28
 448 0 448 0 408 40 c 1,29,30
 368 0 368 0 298 0 c 2,31,-1
 208 0 l 2,0,1
207 158 m 2,32,33
 207 145 207 145 220 145 c 2,34,-1
 312 145 l 2,35,36
 325 145 325 145 325 158 c 2,37,-1
 325 200 l 1,38,-1
 220 200 l 2,39,40
 207 200 207 200 207 187 c 2,41,-1
 207 158 l 2,32,33
492 331 m 1,42,-1
 629 331 l 1,43,-1
 629 374 l 2,44,45
 629 387 629 387 616 387 c 2,46,-1
 505 387 l 2,47,48
 492 387 492 387 492 374 c 2,49,-1
 492 331 l 1,42,-1
EndSplineSet
EndChar

StartChar: eth
Encoding: 177 240 177
Width: 596
Flags: W
LayerCount: 2
Fore
SplineSet
60 168 m 2,0,-1
 60 282 l 2,1,2
 60 450 60 450 228 450 c 2,3,-1
 354 450 l 1,4,-1
 310 526 l 1,5,-1
 202 474 l 1,6,-1
 148 589 l 1,7,-1
 243 635 l 1,8,-1
 210 696 l 1,9,-1
 346 771 l 1,10,-1
 384 702 l 1,11,-1
 463 739 l 1,12,-1
 516 624 l 1,13,-1
 452 596 l 1,14,-1
 502 505 l 2,15,16
 536 443 536 443 536 364 c 2,17,-1
 536 168 l 2,18,19
 536 0 536 0 368 0 c 2,20,-1
 228 0 l 2,21,22
 60 0 60 0 60 168 c 2,0,-1
227 158 m 2,23,24
 227 145 227 145 240 145 c 2,25,-1
 356 145 l 2,26,27
 369 145 369 145 369 158 c 2,28,-1
 369 305 l 1,29,-1
 240 305 l 2,30,31
 227 305 227 305 227 292 c 2,32,-1
 227 158 l 2,23,24
EndSplineSet
EndChar

StartChar: divide
Encoding: 184 247 184
Width: 578
Flags: W
LayerCount: 2
Fore
SplineSet
58 264 m 1,0,-1
 58 406 l 1,1,-1
 520 406 l 1,2,-1
 520 264 l 1,3,-1
 58 264 l 1,0,-1
222 78 m 1,4,-1
 222 212 l 1,5,-1
 356 212 l 1,6,-1
 356 78 l 1,7,-1
 222 78 l 1,4,-1
222 458 m 1,8,-1
 222 592 l 1,9,-1
 356 592 l 1,10,-1
 356 458 l 1,11,-1
 222 458 l 1,8,-1
EndSplineSet
EndChar

StartChar: oslash
Encoding: 185 248 185
Width: 596
Flags: W
LayerCount: 2
Fore
SplineSet
60 168 m 2,0,-1
 60 364 l 2,1,2
 60 532 60 532 228 532 c 2,3,-1
 368 532 l 2,4,5
 536 532 536 532 536 364 c 2,6,-1
 536 168 l 2,7,8
 536 0 536 0 368 0 c 2,9,-1
 228 0 l 2,10,11
 60 0 60 0 60 168 c 2,0,-1
227 266 m 1,12,-1
 366 383 l 1,13,14
 363 387 363 387 356 387 c 2,15,-1
 240 387 l 2,16,17
 227 387 227 387 227 374 c 2,18,-1
 227 266 l 1,12,-1
230 149 m 1,19,20
 233 145 233 145 240 145 c 2,21,-1
 356 145 l 2,22,23
 369 145 369 145 369 158 c 2,24,-1
 369 266 l 1,25,-1
 230 149 l 1,19,20
EndSplineSet
EndChar

StartChar: thorn
Encoding: 191 254 191
Width: 594
Flags: W
LayerCount: 2
Fore
SplineSet
68 -200 m 1,0,-1
 68 740 l 1,1,-1
 235 740 l 1,2,-1
 235 532 l 1,3,-1
 366 532 l 2,4,5
 534 532 534 532 534 364 c 2,6,-1
 534 168 l 2,7,8
 534 0 534 0 366 0 c 2,9,-1
 235 0 l 1,10,-1
 235 -200 l 1,11,-1
 68 -200 l 1,0,-1
235 145 m 1,12,-1
 354 145 l 2,13,14
 367 145 367 145 367 158 c 2,15,-1
 367 374 l 2,16,17
 367 387 367 387 354 387 c 2,18,-1
 235 387 l 1,19,-1
 235 145 l 1,12,-1
EndSplineSet
EndChar

StartChar: dcroat
Encoding: 206 273 206
Width: 594
Flags: W
LayerCount: 2
Fore
SplineSet
60 168 m 2,0,-1
 60 364 l 2,1,2
 60 532 60 532 228 532 c 2,3,-1
 359 532 l 1,4,-1
 359 580 l 1,5,-1
 230 580 l 1,6,-1
 230 692 l 1,7,-1
 359 692 l 1,8,-1
 359 740 l 1,9,-1
 526 740 l 1,10,-1
 526 692 l 1,11,-1
 593 692 l 1,12,-1
 593 580 l 1,13,-1
 526 580 l 1,14,-1
 526 0 l 1,15,-1
 228 0 l 2,16,17
 60 0 60 0 60 168 c 2,0,-1
227 158 m 2,18,19
 227 145 227 145 240 145 c 2,20,-1
 359 145 l 1,21,-1
 359 387 l 1,22,-1
 240 387 l 2,23,24
 227 387 227 387 227 374 c 2,25,-1
 227 158 l 2,18,19
EndSplineSet
EndChar

StartChar: dotlessi
Encoding: 224 305 224
Width: 303
Flags: W
LayerCount: 2
Fore
SplineSet
68 0 m 1,0,-1
 68 532 l 1,1,-1
 235 532 l 1,2,-1
 235 0 l 1,3,-1
 68 0 l 1,0,-1
EndSplineSet
EndChar

StartChar: Lslash
Encoding: 233 321 233
Width: 594
Flags: W
LayerCount: 2
Fore
SplineSet
10 312 m 1,0,-1
 116 372 l 1,1,-1
 116 690 l 1,2,-1
 290 690 l 1,3,-1
 290 473 l 1,4,-1
 395 534 l 1,5,-1
 462 417 l 1,6,-1
 290 317 l 1,7,-1
 290 157 l 1,8,-1
 570 157 l 1,9,-1
 570 0 l 1,10,-1
 116 0 l 1,11,-1
 116 217 l 1,12,-1
 78 194 l 1,13,-1
 10 312 l 1,0,-1
EndSplineSet
EndChar

StartChar: lslash
Encoding: 234 322 234
Width: 363
Flags: W
LayerCount: 2
Fore
SplineSet
-10 354 m 1,0,-1
 86 410 l 1,1,-1
 86 740 l 1,2,-1
 253 740 l 1,3,-1
 253 506 l 1,4,-1
 310 540 l 1,5,-1
 373 430 l 1,6,-1
 253 361 l 1,7,-1
 253 200 l 2,8,9
 253 141 253 141 314 134 c 1,10,-1
 314 -11 l 1,11,12
 86 -11 86 -11 86 217 c 2,13,-1
 86 264 l 1,14,-1
 52 245 l 1,15,-1
 -10 354 l 1,0,-1
EndSplineSet
EndChar

StartChar: OE
Encoding: 245 338 245
Width: 983
Flags: W
LayerCount: 2
Fore
SplineSet
68 176 m 2,0,-1
 68 514 l 2,1,2
 68 690 68 690 244 690 c 2,3,-1
 933 690 l 1,4,-1
 933 533 l 1,5,-1
 627 533 l 1,6,-1
 627 430 l 1,7,-1
 903 430 l 1,8,-1
 903 273 l 1,9,-1
 627 273 l 1,10,-1
 627 157 l 1,11,-1
 933 157 l 1,12,-1
 933 0 l 1,13,-1
 244 0 l 2,14,15
 68 0 68 0 68 176 c 2,0,-1
242 168 m 2,16,17
 242 157 242 157 253 157 c 2,18,-1
 453 157 l 1,19,-1
 453 533 l 1,20,-1
 253 533 l 2,21,22
 242 533 242 533 242 522 c 2,23,-1
 242 168 l 2,16,17
EndSplineSet
EndChar

StartChar: oe
Encoding: 246 339 246
Width: 905
Flags: W
LayerCount: 2
Fore
SplineSet
60 168 m 2,0,-1
 60 364 l 2,1,2
 60 532 60 532 228 532 c 2,3,-1
 348 532 l 2,4,5
 418 532 418 532 458 492 c 1,6,7
 498 532 498 532 568 532 c 2,8,-1
 677 532 l 2,9,10
 845 532 845 532 845 364 c 2,11,-1
 845 205 l 1,12,-1
 541 205 l 1,13,-1
 541 158 l 2,14,15
 541 145 541 145 554 145 c 2,16,-1
 825 145 l 1,17,-1
 825 52 l 1,18,-1
 755 0 l 1,19,-1
 568 0 l 2,20,21
 498 0 498 0 458 40 c 1,22,23
 418 0 418 0 348 0 c 2,24,-1
 228 0 l 2,25,26
 60 0 60 0 60 168 c 2,0,-1
227 158 m 2,27,28
 227 145 227 145 240 145 c 2,29,-1
 361 145 l 2,30,31
 374 145 374 145 374 158 c 2,32,-1
 374 374 l 2,33,34
 374 387 374 387 361 387 c 2,35,-1
 240 387 l 2,36,37
 227 387 227 387 227 374 c 2,38,-1
 227 158 l 2,27,28
541 331 m 1,39,-1
 678 331 l 1,40,-1
 678 374 l 2,41,42
 678 387 678 387 665 387 c 2,43,-1
 554 387 l 2,44,45
 541 387 541 387 541 374 c 2,46,-1
 541 331 l 1,39,-1
EndSplineSet
EndChar

StartChar: florin
Encoding: 278 402 278
Width: 582
Flags: W
LayerCount: 2
Fore
SplineSet
40 -28 m 1,0,-1
 165 -28 l 2,1,2
 178 -28 178 -28 178 -15 c 2,3,-1
 178 572 l 2,4,5
 178 740 178 740 346 740 c 2,6,-1
 448 740 l 1,7,-1
 518 688 l 1,8,-1
 518 595 l 1,9,-1
 358 595 l 2,10,11
 345 595 345 595 345 582 c 2,12,-1
 345 532 l 1,13,-1
 508 532 l 1,14,-1
 508 387 l 1,15,-1
 345 387 l 1,16,-1
 345 -5 l 2,17,18
 345 -173 345 -173 177 -173 c 2,19,-1
 110 -173 l 1,20,-1
 40 -120 l 1,21,-1
 40 -28 l 1,0,-1
EndSplineSet
EndChar

StartChar: uni0237
Encoding: 283 567 283
Width: 303
Flags: W
LayerCount: 2
Fore
SplineSet
-11 -70 m 1,0,1
 68 -64 68 -64 68 14 c 2,2,-1
 68 532 l 1,3,-1
 235 532 l 1,4,-1
 235 35 l 2,5,6
 235 -211 235 -211 -11 -211 c 1,7,-1
 -11 -70 l 1,0,1
EndSplineSet
EndChar

StartChar: uni0300
Encoding: 293 768 293
Width: 0
Flags: W
LayerCount: 2
Fore
SplineSet
-426 732 m 1,0,-1
 -338 815 l 1,1,-1
 -196 652 l 1,2,-1
 -273 578 l 1,3,-1
 -426 732 l 1,0,-1
EndSplineSet
EndChar

StartChar: uni0301
Encoding: 294 769 294
Width: 0
Flags: W
LayerCount: 2
Fore
SplineSet
-388 652 m 1,0,-1
 -246 815 l 1,1,-1
 -158 732 l 1,2,-1
 -311 578 l 1,3,-1
 -388 652 l 1,0,-1
EndSplineSet
EndChar

StartChar: uni0302
Encoding: 295 770 295
Width: 0
Flags: W
LayerCount: 2
Fore
SplineSet
-458 652 m 1,0,-1
 -292 815 l 1,1,-1
 -126 652 l 1,2,-1
 -194 579 l 1,3,-1
 -292 672 l 1,4,-1
 -390 579 l 1,5,-1
 -458 652 l 1,0,-1
EndSplineSet
EndChar

StartChar: uni0303
Encoding: 296 771 296
Width: 0
Flags: W
LayerCount: 2
Fore
SplineSet
-480 659 m 1,0,-1
 -408 731 l 2,1,2
 -386 753 -386 753 -348 753 c 128,-1,3
 -310 753 -310 753 -288 731 c 2,4,-1
 -241 684 l 2,5,6
 -238 681 -238 681 -236 681 c 128,-1,7
 -234 681 -234 681 -231 684 c 2,8,-1
 -173 742 l 1,9,-1
 -104 673 l 1,10,-1
 -176 601 l 2,11,12
 -198 579 -198 579 -236 579 c 128,-1,13
 -274 579 -274 579 -296 601 c 2,14,-1
 -343 648 l 2,15,16
 -346 651 -346 651 -348 651 c 128,-1,17
 -350 651 -350 651 -353 648 c 2,18,-1
 -411 590 l 1,19,-1
 -480 659 l 1,0,-1
EndSplineSet
EndChar

StartChar: uni0304
Encoding: 297 772 297
Width: 0
Flags: W
LayerCount: 2
Fore
SplineSet
-446 614 m 1,0,-1
 -446 726 l 1,1,-1
 -138 726 l 1,2,-1
 -138 614 l 1,3,-1
 -446 614 l 1,0,-1
EndSplineSet
EndChar

StartChar: uni0306
Encoding: 298 774 298
Width: 0
Flags: W
LayerCount: 2
Fore
SplineSet
-436 686 m 2,0,-1
 -436 755 l 1,1,-1
 -344 755 l 1,2,-1
 -344 692 l 2,3,4
 -344 688 -344 688 -340 688 c 2,5,-1
 -244 688 l 2,6,7
 -240 688 -240 688 -240 692 c 2,8,-1
 -240 755 l 1,9,-1
 -148 755 l 1,10,-1
 -148 686 l 2,11,12
 -148 595 -148 595 -239 595 c 2,13,-1
 -345 595 l 2,14,15
 -436 595 -436 595 -436 686 c 2,0,-1
EndSplineSet
EndChar

StartChar: uni0307
Encoding: 299 775 299
Width: 0
Flags: W
LayerCount: 2
Fore
SplineSet
-378 614 m 1,0,-1
 -378 769 l 1,1,-1
 -206 769 l 1,2,-1
 -206 614 l 1,3,-1
 -378 614 l 1,0,-1
EndSplineSet
EndChar

StartChar: uni0308
Encoding: 300 776 300
Width: 0
Flags: W
LayerCount: 2
Fore
SplineSet
-467 598 m 1,0,-1
 -467 740 l 1,1,-1
 -327 740 l 1,2,-1
 -327 598 l 1,3,-1
 -467 598 l 1,0,-1
-257 598 m 1,4,-1
 -257 740 l 1,5,-1
 -117 740 l 1,6,-1
 -117 598 l 1,7,-1
 -257 598 l 1,4,-1
EndSplineSet
EndChar

StartChar: uni030A
Encoding: 301 778 301
Width: 0
Flags: W
LayerCount: 2
Fore
SplineSet
-415 652 m 2,0,-1
 -415 712 l 2,1,2
 -415 796 -415 796 -330 796 c 2,3,-1
 -254 796 l 2,4,5
 -169 796 -169 796 -169 712 c 2,6,-1
 -169 652 l 2,7,8
 -169 568 -169 568 -254 568 c 2,9,-1
 -330 568 l 2,10,11
 -415 568 -415 568 -415 652 c 2,0,-1
-324 650 m 2,12,13
 -324 646 -324 646 -320 646 c 2,14,-1
 -264 646 l 2,15,16
 -260 646 -260 646 -260 650 c 2,17,-1
 -260 714 l 2,18,19
 -260 718 -260 718 -264 718 c 2,20,-1
 -320 718 l 2,21,22
 -324 718 -324 718 -324 714 c 2,23,-1
 -324 650 l 2,12,13
EndSplineSet
EndChar

StartChar: uni030B
Encoding: 302 779 302
Width: 0
Flags: W
LayerCount: 2
Fore
SplineSet
-474 642 m 1,0,-1
 -356 815 l 1,1,-1
 -262 744 l 1,2,-1
 -391 578 l 1,3,-1
 -474 642 l 1,0,-1
-279 642 m 1,4,-1
 -161 815 l 1,5,-1
 -66 744 l 1,6,-1
 -196 578 l 1,7,-1
 -279 642 l 1,4,-1
EndSplineSet
EndChar

StartChar: uni030C
Encoding: 303 780 303
Width: 0
Flags: W
LayerCount: 2
Fore
SplineSet
-458 732 m 1,0,-1
 -390 805 l 1,1,-1
 -292 712 l 1,2,-1
 -194 805 l 1,3,-1
 -126 732 l 1,4,-1
 -292 569 l 1,5,-1
 -458 732 l 1,0,-1
EndSplineSet
EndChar

StartChar: uni0326
Encoding: 304 806 304
Width: 0
Flags: W
LayerCount: 2
Fore
SplineSet
-389 -176 m 1,0,-1
 -360 -50 l 1,1,-1
 -240 -50 l 1,2,-1
 -223 -74 l 1,3,-1
 -278 -208 l 1,4,-1
 -389 -176 l 1,0,-1
EndSplineSet
EndChar

StartChar: uni0327
Encoding: 305 807 305
Width: 0
Flags: W
LayerCount: 2
Fore
SplineSet
-405 -74 m 1,0,-1
 -304 -74 l 2,1,2
 -300 -74 -300 -74 -300 -70 c 2,3,-1
 -300 72 l 1,4,-1
 -173 72 l 1,5,-1
 -173 -56 l 2,6,7
 -173 -189 -173 -189 -306 -189 c 2,8,-1
 -350 -189 l 1,9,-1
 -405 -146 l 1,10,-1
 -405 -74 l 1,0,-1
EndSplineSet
EndChar

StartChar: uni0328
Encoding: 306 808 306
Width: 0
Flags: W
LayerCount: 2
Fore
SplineSet
-399 -18 m 2,0,1
 -399 115 -399 115 -266 115 c 2,2,-1
 -248 115 l 1,3,-1
 -248 0 l 1,4,-1
 -268 0 l 2,5,6
 -272 0 -272 0 -272 -4 c 2,7,-1
 -272 -70 l 2,8,9
 -272 -74 -272 -74 -268 -74 c 2,10,-1
 -171 -74 l 1,11,-1
 -171 -146 l 1,12,-1
 -226 -189 l 1,13,-1
 -266 -189 l 2,14,15
 -399 -189 -399 -189 -399 -56 c 2,16,-1
 -399 -18 l 2,0,1
EndSplineSet
EndChar

StartChar: pi
Encoding: 307 960 307
Width: 602
Flags: W
LayerCount: 2
Fore
SplineSet
68 0 m 1,0,-1
 68 532 l 1,1,-1
 534 532 l 1,2,-1
 534 0 l 1,3,-1
 367 0 l 1,4,-1
 367 387 l 1,5,-1
 235 387 l 1,6,-1
 235 0 l 1,7,-1
 68 0 l 1,0,-1
EndSplineSet
EndChar

StartChar: uni1E9E
Encoding: 308 7838 308
Width: 711
Flags: W
LayerCount: 2
Fore
SplineSet
72 0 m 1,0,-1
 72 514 l 2,1,2
 72 690 72 690 248 690 c 2,3,-1
 588 690 l 1,4,-1
 588 556 l 1,5,-1
 497 430 l 1,6,-1
 501 430 l 2,7,8
 663 430 663 430 663 244 c 2,9,-1
 663 176 l 2,10,11
 663 0 663 0 488 0 c 2,12,-1
 373 0 l 1,13,-1
 295 60 l 1,14,-1
 295 157 l 1,15,-1
 478 157 l 2,16,17
 489 157 489 157 489 168 c 2,18,-1
 489 262 l 2,19,20
 489 273 489 273 478 273 c 2,21,-1
 300 273 l 1,22,-1
 300 408 l 1,23,-1
 391 533 l 1,24,-1
 257 533 l 2,25,26
 246 533 246 533 246 522 c 2,27,-1
 246 0 l 1,28,-1
 72 0 l 1,0,-1
EndSplineSet
EndChar

StartChar: endash
Encoding: 309 8211 309
Width: 580
Flags: W
LayerCount: 2
Fore
SplineSet
40 234 m 1,0,-1
 40 376 l 1,1,-1
 540 376 l 1,2,-1
 540 234 l 1,3,-1
 40 234 l 1,0,-1
EndSplineSet
EndChar

StartChar: emdash
Encoding: 310 8212 310
Width: 1000
Flags: W
LayerCount: 2
Fore
SplineSet
40 234 m 1,0,-1
 40 376 l 1,1,-1
 960 376 l 1,2,-1
 960 234 l 1,3,-1
 40 234 l 1,0,-1
EndSplineSet
EndChar

StartChar: quoteleft
Encoding: 311 8216 311
Width: 287
Flags: W
LayerCount: 2
Fore
SplineSet
24 474 m 1,0,-1
 135 765 l 1,1,-1
 258 734 l 1,2,-1
 184 449 l 1,3,-1
 40 449 l 1,4,-1
 24 474 l 1,0,-1
EndSplineSet
EndChar

StartChar: quoteright
Encoding: 312 8217 312
Width: 287
Flags: W
LayerCount: 2
Fore
SplineSet
20 456 m 1,0,-1
 94 740 l 1,1,-1
 238 740 l 1,2,-1
 254 716 l 1,3,-1
 143 424 l 1,4,-1
 20 456 l 1,0,-1
EndSplineSet
EndChar

StartChar: quotesinglbase
Encoding: 313 8218 313
Width: 287
Flags: W
LayerCount: 2
Fore
SplineSet
17 -124 m 1,0,-1
 91 161 l 1,1,-1
 234 161 l 1,2,-1
 251 136 l 1,3,-1
 140 -155 l 1,4,-1
 17 -124 l 1,0,-1
EndSplineSet
EndChar

StartChar: dagger
Encoding: 317 8224 317
Width: 502
Flags: W
LayerCount: 2
Fore
SplineSet
50 384 m 1,0,-1
 50 526 l 1,1,-1
 176 526 l 1,2,-1
 176 690 l 1,3,-1
 326 690 l 1,4,-1
 326 526 l 1,5,-1
 452 526 l 1,6,-1
 452 384 l 1,7,-1
 326 384 l 1,8,-1
 326 -100 l 1,9,-1
 176 -100 l 1,10,-1
 176 384 l 1,11,-1
 50 384 l 1,0,-1
EndSplineSet
EndChar

StartChar: daggerdbl
Encoding: 318 8225 318
Width: 502
Flags: W
LayerCount: 2
Fore
SplineSet
50 64 m 1,0,-1
 50 206 l 1,1,-1
 176 206 l 1,2,-1
 176 384 l 1,3,-1
 50 384 l 1,4,-1
 50 526 l 1,5,-1
 176 526 l 1,6,-1
 176 690 l 1,7,-1
 326 690 l 1,8,-1
 326 526 l 1,9,-1
 452 526 l 1,10,-1
 452 384 l 1,11,-1
 326 384 l 1,12,-1
 326 206 l 1,13,-1
 452 206 l 1,14,-1
 452 64 l 1,15,-1
 326 64 l 1,16,-1
 326 -100 l 1,17,-1
 176 -100 l 1,18,-1
 176 64 l 1,19,-1
 50 64 l 1,0,-1
EndSplineSet
EndChar

StartChar: bullet
Encoding: 319 8226 319
Width: 372
Flags: W
LayerCount: 2
Fore
SplineSet
56 230 m 1,0,-1
 56 490 l 1,1,-1
 316 490 l 1,2,-1
 316 230 l 1,3,-1
 56 230 l 1,0,-1
EndSplineSet
EndChar

StartChar: guilsinglleft
Encoding: 322 8249 322
Width: 368
Flags: W
LayerCount: 2
Fore
SplineSet
30 315 m 1,0,-1
 226 561 l 1,1,-1
 328 477 l 1,2,-1
 203 315 l 1,3,-1
 328 153 l 1,4,-1
 226 69 l 1,5,-1
 30 315 l 1,0,-1
EndSplineSet
EndChar

StartChar: guilsinglright
Encoding: 323 8250 323
Width: 368
Flags: W
LayerCount: 2
Fore
SplineSet
40 153 m 1,0,-1
 164 315 l 1,1,-1
 40 477 l 1,2,-1
 142 561 l 1,3,-1
 338 315 l 1,4,-1
 142 69 l 1,5,-1
 40 153 l 1,0,-1
EndSplineSet
EndChar

StartChar: fraction
Encoding: 324 8260 324
Width: 155
Flags: W
LayerCount: 2
Fore
SplineSet
-148 45 m 1,0,-1
 182 705 l 1,1,-1
 302 645 l 1,2,-1
 -28 -15 l 1,3,-1
 -148 45 l 1,0,-1
EndSplineSet
EndChar

StartChar: uni2070
Encoding: 325 8304 325
Width: 369
Flags: W
LayerCount: 2
Fore
SplineSet
31 404 m 2,0,-1
 31 557 l 2,1,2
 31 690 31 690 164 690 c 2,3,-1
 205 690 l 2,4,5
 338 690 338 690 338 557 c 2,6,-1
 338 404 l 2,7,8
 338 271 338 271 205 271 c 2,9,-1
 164 271 l 2,10,11
 31 271 31 271 31 404 c 2,0,-1
161 393 m 2,12,13
 161 389 161 389 165 389 c 2,14,-1
 204 389 l 2,15,16
 208 389 208 389 208 393 c 2,17,-1
 208 568 l 2,18,19
 208 572 208 572 204 572 c 2,20,-1
 165 572 l 2,21,22
 161 572 161 572 161 568 c 2,23,-1
 161 393 l 2,12,13
EndSplineSet
EndChar

StartChar: uni2074
Encoding: 326 8308 326
Width: 369
Flags: W
LayerCount: 2
Fore
SplineSet
31 313 m 1,0,-1
 31 422 l 1,1,-1
 126 690 l 1,2,-1
 237 690 l 1,3,-1
 251 666 l 1,4,-1
 175 431 l 1,5,-1
 208 431 l 1,6,-1
 208 506 l 1,7,-1
 338 506 l 1,8,-1
 338 271 l 1,9,-1
 208 271 l 1,10,-1
 208 313 l 1,11,-1
 31 313 l 1,0,-1
EndSplineSet
EndChar

StartChar: Euro
Encoding: 332 8364 332
Width: 578
Flags: W
LayerCount: 2
Fore
SplineSet
19 227 m 1,0,-1
 19 319 l 1,1,-1
 86 319 l 1,2,-1
 86 371 l 1,3,-1
 19 371 l 1,4,-1
 19 463 l 1,5,-1
 86 463 l 1,6,-1
 86 514 l 2,7,8
 86 690 86 690 262 690 c 2,9,-1
 471 690 l 1,10,-1
 549 630 l 1,11,-1
 549 533 l 1,12,-1
 271 533 l 2,13,14
 260 533 260 533 260 522 c 2,15,-1
 260 463 l 1,16,-1
 475 463 l 1,17,-1
 475 371 l 1,18,-1
 260 371 l 1,19,-1
 260 319 l 1,20,-1
 431 319 l 1,21,-1
 431 227 l 1,22,-1
 260 227 l 1,23,-1
 260 168 l 2,24,25
 260 157 260 157 271 157 c 2,26,-1
 549 157 l 1,27,-1
 549 60 l 1,28,-1
 471 0 l 1,29,-1
 262 0 l 2,30,31
 86 0 86 0 86 176 c 2,32,-1
 86 227 l 1,33,-1
 19 227 l 1,0,-1
EndSplineSet
EndChar

StartChar: uni20BA
Encoding: 333 8378 333
Width: 578
Flags: W
LayerCount: 2
Fore
SplineSet
21 311 m 1,0,-1
 106 345 l 1,1,-1
 106 402 l 1,2,-1
 55 382 l 1,3,-1
 21 467 l 1,4,-1
 106 501 l 1,5,-1
 106 690 l 1,6,-1
 280 690 l 1,7,-1
 280 571 l 1,8,-1
 420 627 l 1,9,-1
 454 542 l 1,10,-1
 280 472 l 1,11,-1
 280 415 l 1,12,-1
 420 471 l 1,13,-1
 454 386 l 1,14,-1
 280 316 l 1,15,-1
 280 157 l 1,16,-1
 284 157 l 2,17,18
 374 157 374 157 374 262 c 2,19,-1
 374 300 l 1,20,-1
 542 300 l 1,21,-1
 542 278 l 2,22,23
 542 0 542 0 274 0 c 2,24,-1
 106 0 l 1,25,-1
 106 246 l 1,26,-1
 55 226 l 1,27,-1
 21 311 l 1,0,-1
EndSplineSet
EndChar

StartChar: uni20BD
Encoding: 334 8381 334
Width: 578
Flags: W
LayerCount: 2
Fore
SplineSet
26 86 m 1,0,-1
 26 212 l 1,1,-1
 76 212 l 1,2,-1
 76 272 l 1,3,-1
 26 272 l 1,4,-1
 26 418 l 1,5,-1
 76 418 l 1,6,-1
 76 690 l 1,7,-1
 366 690 l 2,8,9
 542 690 542 690 542 514 c 2,10,-1
 542 448 l 2,11,12
 542 272 542 272 366 272 c 2,13,-1
 250 272 l 1,14,-1
 250 212 l 1,15,-1
 416 212 l 1,16,-1
 416 86 l 1,17,-1
 250 86 l 1,18,-1
 250 0 l 1,19,-1
 76 0 l 1,20,-1
 76 86 l 1,21,-1
 26 86 l 1,0,-1
250 418 m 1,22,-1
 357 418 l 2,23,24
 368 418 368 418 368 428 c 2,25,-1
 368 522 l 2,26,27
 368 533 368 533 357 533 c 2,28,-1
 250 533 l 1,29,-1
 250 418 l 1,22,-1
EndSplineSet
EndChar

StartChar: trademark
Encoding: 336 8482 336
Width: 800
Flags: W
LayerCount: 2
Fore
SplineSet
20 579 m 1,0,-1
 20 690 l 1,1,-1
 316 690 l 1,2,-1
 316 579 l 1,3,-1
 230 579 l 1,4,-1
 230 331 l 1,5,-1
 106 331 l 1,6,-1
 106 579 l 1,7,-1
 20 579 l 1,0,-1
339 331 m 1,8,-1
 339 690 l 1,9,-1
 476 690 l 1,10,-1
 546 540 l 1,11,-1
 616 690 l 1,12,-1
 752 690 l 1,13,-1
 752 331 l 1,14,-1
 629 331 l 1,15,-1
 629 453 l 1,16,-1
 590 370 l 1,17,-1
 500 370 l 1,18,-1
 462 453 l 1,19,-1
 462 331 l 1,20,-1
 339 331 l 1,8,-1
EndSplineSet
EndChar

StartChar: Omega
Encoding: 337 8486 337
Width: 712
Flags: W
LayerCount: 2
Fore
SplineSet
48 0 m 1,0,-1
 48 157 l 1,1,-1
 100 157 l 1,2,-1
 98 160 l 2,3,4
 68 205 68 205 68 264 c 2,5,-1
 68 514 l 2,6,7
 68 690 68 690 244 690 c 2,8,-1
 468 690 l 2,9,10
 644 690 644 690 644 514 c 2,11,-1
 644 264 l 2,12,13
 644 205 644 205 614 160 c 2,14,-1
 612 157 l 1,15,-1
 664 157 l 1,16,-1
 664 0 l 1,17,-1
 398 0 l 1,18,-1
 398 131 l 1,19,-1
 460 213 l 2,20,21
 470 226 470 226 470 249 c 2,22,-1
 470 522 l 2,23,24
 470 533 470 533 459 533 c 2,25,-1
 253 533 l 2,26,27
 242 533 242 533 242 522 c 2,28,-1
 242 249 l 2,29,30
 242 226 242 226 252 213 c 2,31,-1
 314 131 l 1,32,-1
 314 0 l 1,33,-1
 48 0 l 1,0,-1
EndSplineSet
EndChar

StartChar: estimated
Encoding: 338 8494 338
Width: 880
Flags: W
LayerCount: 2
Fore
SplineSet
60 345 m 128,-1,1
 60 494 60 494 171.5 599.5 c 128,-1,2
 283 705 283 705 440 705 c 128,-1,3
 597 705 597 705 708.5 599.5 c 128,-1,4
 820 494 820 494 820 345 c 2,5,-1
 820 325 l 1,6,-1
 200 325 l 1,7,-1
 200 127 l 1,8,9
 305 25 305 25 440 25 c 0,10,11
 586 25 586 25 697 145 c 1,12,-1
 733 116 l 1,13,14
 614 -15 614 -15 440 -15 c 0,15,16
 283 -15 283 -15 171.5 90.5 c 128,-1,0
 60 196 60 196 60 345 c 128,-1,1
200 365 m 1,17,-1
 680 365 l 1,18,-1
 680 563 l 1,19,20
 575 665 575 665 440 665 c 128,-1,21
 305 665 305 665 200 563 c 1,22,-1
 200 365 l 1,17,-1
EndSplineSet
EndChar

StartChar: partialdiff
Encoding: 339 8706 339
Width: 590
Flags: W
LayerCount: 2
Fore
SplineSet
60 168 m 2,0,-1
 60 322 l 2,1,2
 60 490 60 490 228 490 c 2,3,-1
 359 490 l 1,4,-1
 359 498 l 2,5,6
 359 595 359 595 262 595 c 2,7,-1
 104 595 l 1,8,-1
 104 688 l 1,9,-1
 174 740 l 1,10,-1
 257 740 l 2,11,12
 526 740 526 740 526 471 c 2,13,-1
 526 168 l 2,14,15
 526 0 526 0 358 0 c 2,16,-1
 228 0 l 2,17,18
 60 0 60 0 60 168 c 2,0,-1
227 158 m 2,19,20
 227 145 227 145 240 145 c 2,21,-1
 346 145 l 2,22,23
 359 145 359 145 359 158 c 2,24,-1
 359 345 l 1,25,-1
 240 345 l 2,26,27
 227 345 227 345 227 332 c 2,28,-1
 227 158 l 2,19,20
EndSplineSet
EndChar

StartChar: Delta
Encoding: 340 8710 340
Width: 694
Flags: W
LayerCount: 2
Fore
SplineSet
17 32 m 1,0,-1
 209 690 l 1,1,-1
 485 690 l 1,2,-1
 677 32 l 1,3,-1
 656 0 l 1,4,-1
 38 0 l 1,5,-1
 17 32 l 1,0,-1
228 157 m 1,6,-1
 466 157 l 1,7,-1
 360 533 l 1,8,-1
 334 533 l 1,9,-1
 228 157 l 1,6,-1
EndSplineSet
EndChar

StartChar: product
Encoding: 341 8719 341
Width: 712
Flags: W
LayerCount: 2
Fore
SplineSet
78 -100 m 1,0,-1
 78 690 l 1,1,-1
 634 690 l 1,2,-1
 634 -100 l 1,3,-1
 460 -100 l 1,4,-1
 460 533 l 1,5,-1
 252 533 l 1,6,-1
 252 -100 l 1,7,-1
 78 -100 l 1,0,-1
EndSplineSet
EndChar

StartChar: summation
Encoding: 342 8721 342
Width: 610
Flags: W
LayerCount: 2
Fore
SplineSet
50 34 m 1,0,-1
 234 295 l 1,1,-1
 50 556 l 1,2,-1
 50 690 l 1,3,-1
 560 690 l 1,4,-1
 560 533 l 1,5,-1
 262 533 l 1,6,-1
 429 295 l 1,7,-1
 262 57 l 1,8,-1
 560 57 l 1,9,-1
 560 -100 l 1,10,-1
 50 -100 l 1,11,-1
 50 34 l 1,0,-1
EndSplineSet
EndChar

StartChar: minus
Encoding: 343 8722 343
Width: 578
Flags: W
LayerCount: 2
Fore
SplineSet
58 264 m 1,0,-1
 58 406 l 1,1,-1
 520 406 l 1,2,-1
 520 264 l 1,3,-1
 58 264 l 1,0,-1
EndSplineSet
EndChar

StartChar: radical
Encoding: 346 8730 346
Width: 628
Flags: W
LayerCount: 2
Fore
SplineSet
20 285 m 1,0,-1
 20 400 l 1,1,-1
 215 400 l 1,2,-1
 288 180 l 1,3,-1
 502 800 l 1,4,-1
 626 758 l 1,5,-1
 359 -10 l 1,6,-1
 208 -10 l 1,7,-1
 108 285 l 1,8,-1
 20 285 l 1,0,-1
EndSplineSet
EndChar

StartChar: infinity
Encoding: 347 8734 347
Width: 616
Flags: W
LayerCount: 2
Fore
SplineSet
28 303 m 2,0,-1
 28 367 l 2,1,2
 28 500 28 500 161 500 c 2,3,-1
 241 500 l 2,4,5
 268 500 268 500 285 483 c 2,6,-1
 308 460 l 1,7,-1
 331 483 l 2,8,9
 348 500 348 500 375 500 c 2,10,-1
 455 500 l 2,11,12
 588 500 588 500 588 367 c 2,13,-1
 588 303 l 2,14,15
 588 170 588 170 455 170 c 2,16,-1
 375 170 l 2,17,18
 348 170 348 170 331 187 c 2,19,-1
 308 210 l 1,20,-1
 285 187 l 2,21,22
 268 170 268 170 241 170 c 2,23,-1
 161 170 l 2,24,25
 28 170 28 170 28 303 c 2,0,-1
158 292 m 2,26,27
 158 288 158 288 162 288 c 2,28,-1
 239 288 l 2,29,30
 243 288 243 288 243 292 c 2,31,-1
 243 378 l 2,32,33
 243 382 243 382 239 382 c 2,34,-1
 162 382 l 2,35,36
 158 382 158 382 158 378 c 2,37,-1
 158 292 l 2,26,27
373 292 m 2,38,39
 373 288 373 288 377 288 c 2,40,-1
 454 288 l 2,41,42
 458 288 458 288 458 292 c 2,43,-1
 458 378 l 2,44,45
 458 382 458 382 454 382 c 2,46,-1
 377 382 l 2,47,48
 373 382 373 382 373 378 c 2,49,-1
 373 292 l 2,38,39
EndSplineSet
EndChar

StartChar: integral
Encoding: 348 8747 348
Width: 507
Flags: W
LayerCount: 2
Fore
SplineSet
20 -55 m 1,0,-1
 157 -55 l 2,1,2
 170 -55 170 -55 170 -42 c 2,3,-1
 170 572 l 2,4,5
 170 740 170 740 338 740 c 2,6,-1
 417 740 l 1,7,-1
 487 688 l 1,8,-1
 487 595 l 1,9,-1
 350 595 l 2,10,11
 337 595 337 595 337 582 c 2,12,-1
 337 -32 l 2,13,14
 337 -200 337 -200 169 -200 c 2,15,-1
 90 -200 l 1,16,-1
 20 -148 l 1,17,-1
 20 -55 l 1,0,-1
EndSplineSet
EndChar

StartChar: notequal
Encoding: 350 8800 350
Width: 578
Flags: W
LayerCount: 2
Fore
SplineSet
58 154 m 1,0,-1
 58 296 l 1,1,-1
 197 296 l 1,2,-1
 237 374 l 1,3,-1
 58 374 l 1,4,-1
 58 516 l 1,5,-1
 309 516 l 1,6,-1
 362 622 l 1,7,-1
 477 562 l 1,8,-1
 453 516 l 1,9,-1
 520 516 l 1,10,-1
 520 374 l 1,11,-1
 381 374 l 1,12,-1
 341 296 l 1,13,-1
 520 296 l 1,14,-1
 520 154 l 1,15,-1
 269 154 l 1,16,-1
 216 48 l 1,17,-1
 101 108 l 1,18,-1
 125 154 l 1,19,-1
 58 154 l 1,0,-1
EndSplineSet
EndChar

StartChar: lessequal
Encoding: 351 8804 351
Width: 578
Flags: W
LayerCount: 2
Fore
SplineSet
58 0 m 1,0,-1
 58 142 l 1,1,-1
 520 142 l 1,2,-1
 520 0 l 1,3,-1
 58 0 l 1,0,-1
64 358 m 1,4,-1
 64 514 l 1,5,-1
 469 708 l 1,6,-1
 529 582 l 1,7,-1
 218 436 l 1,8,-1
 529 290 l 1,9,-1
 469 164 l 1,10,-1
 64 358 l 1,4,-1
EndSplineSet
EndChar

StartChar: greaterequal
Encoding: 352 8805 352
Width: 578
Flags: W
LayerCount: 2
Fore
SplineSet
58 0 m 1,0,-1
 58 142 l 1,1,-1
 520 142 l 1,2,-1
 520 0 l 1,3,-1
 58 0 l 1,0,-1
49 290 m 1,4,-1
 360 436 l 1,5,-1
 49 582 l 1,6,-1
 109 708 l 1,7,-1
 514 514 l 1,8,-1
 514 358 l 1,9,-1
 109 164 l 1,10,-1
 49 290 l 1,4,-1
EndSplineSet
EndChar

StartChar: lozenge
Encoding: 353 9674 353
Width: 578
Flags: W
LayerCount: 2
Fore
SplineSet
16 345 m 1,0,-1
 214 690 l 1,1,-1
 364 690 l 1,2,-1
 562 345 l 1,3,-1
 364 0 l 1,4,-1
 214 0 l 1,5,-1
 16 345 l 1,0,-1
166 345 m 1,6,-1
 289 130 l 1,7,-1
 412 345 l 1,8,-1
 289 560 l 1,9,-1
 166 345 l 1,6,-1
EndSplineSet
EndChar

StartChar: uniF000
Encoding: 354 61440 354
Width: 700
Flags: W
LayerCount: 2
Fore
SplineSet
50 605 m 1,0,-1
 650 605 l 1,1,-1
 350 85 l 1,2,-1
 50 605 l 1,0,-1
EndSplineSet
EndChar

StartChar: .notdef
Encoding: 357 -1 357
Width: 598
Flags: W
LayerCount: 2
Fore
SplineSet
76 0 m 1,0,-1
 76 740 l 1,1,-1
 522 740 l 1,2,-1
 522 0 l 1,3,-1
 76 0 l 1,0,-1
172 95 m 1,4,-1
 426 95 l 1,5,-1
 426 645 l 1,6,-1
 172 645 l 1,7,-1
 172 95 l 1,4,-1
EndSplineSet
EndChar

StartChar: uni030C.alt
Encoding: 358 -1 358
Width: 0
Flags: W
LayerCount: 2
Fore
SplineSet
-80 578 m 1,0,-1
 -42 772 l 1,1,-1
 64 772 l 1,2,-1
 80 748 l 1,3,-1
 16 554 l 1,4,-1
 -80 578 l 1,0,-1
EndSplineSet
EndChar

StartChar: uni0326.alt
Encoding: 359 -1 359
Width: 0
Flags: W
LayerCount: 2
Fore
SplineSet
-59 630 m 1,0,-1
 -4 764 l 1,1,-1
 107 732 l 1,2,-1
 78 606 l 1,3,-1
 -42 606 l 1,4,-1
 -59 630 l 1,0,-1
EndSplineSet
EndChar

StartChar: uni0300.cap
Encoding: 360 -1 360
Width: 0
Flags: W
LayerCount: 2
Fore
SplineSet
-470 880 m 1,0,-1
 -382 963 l 1,1,-1
 -238 800 l 1,2,-1
 -316 726 l 1,3,-1
 -470 880 l 1,0,-1
EndSplineSet
EndChar

StartChar: uni0301.cap
Encoding: 361 -1 361
Width: 0
Flags: W
LayerCount: 2
Fore
SplineSet
-432 800 m 1,0,-1
 -288 963 l 1,1,-1
 -200 880 l 1,2,-1
 -354 726 l 1,3,-1
 -432 800 l 1,0,-1
EndSplineSet
EndChar

StartChar: uni0302.cap
Encoding: 362 -1 362
Width: 0
Flags: W
LayerCount: 2
Fore
SplineSet
-502 800 m 1,0,-1
 -335 963 l 1,1,-1
 -168 800 l 1,2,-1
 -238 727 l 1,3,-1
 -335 820 l 1,4,-1
 -432 727 l 1,5,-1
 -502 800 l 1,0,-1
EndSplineSet
EndChar

StartChar: uni0303.cap
Encoding: 363 -1 363
Width: 0
Flags: W
LayerCount: 2
Fore
SplineSet
-523 807 m 1,0,-1
 -451 879 l 2,1,2
 -429 901 -429 901 -391 901 c 128,-1,3
 -353 901 -353 901 -331 879 c 2,4,-1
 -284 832 l 2,5,6
 -281 829 -281 829 -279 829 c 128,-1,7
 -277 829 -277 829 -274 832 c 2,8,-1
 -216 890 l 1,9,-1
 -147 821 l 1,10,-1
 -219 749 l 2,11,12
 -241 727 -241 727 -279 727 c 128,-1,13
 -317 727 -317 727 -339 749 c 2,14,-1
 -386 796 l 2,15,16
 -389 799 -389 799 -391 799 c 128,-1,17
 -393 799 -393 799 -396 796 c 2,18,-1
 -454 738 l 1,19,-1
 -523 807 l 1,0,-1
EndSplineSet
EndChar

StartChar: uni0304.cap
Encoding: 364 -1 364
Width: 0
Flags: W
LayerCount: 2
Fore
SplineSet
-489 762 m 1,0,-1
 -489 874 l 1,1,-1
 -181 874 l 1,2,-1
 -181 762 l 1,3,-1
 -489 762 l 1,0,-1
EndSplineSet
EndChar

StartChar: uni0306.cap
Encoding: 365 -1 365
Width: 0
Flags: W
LayerCount: 2
Fore
SplineSet
-479 834 m 2,0,-1
 -479 903 l 1,1,-1
 -387 903 l 1,2,-1
 -387 840 l 2,3,4
 -387 836 -387 836 -383 836 c 2,5,-1
 -287 836 l 2,6,7
 -283 836 -283 836 -283 840 c 2,8,-1
 -283 903 l 1,9,-1
 -191 903 l 1,10,-1
 -191 834 l 2,11,12
 -191 743 -191 743 -282 743 c 2,13,-1
 -388 743 l 2,14,15
 -479 743 -479 743 -479 834 c 2,0,-1
EndSplineSet
EndChar

StartChar: uni0307.cap
Encoding: 366 -1 366
Width: 0
Flags: W
LayerCount: 2
Fore
SplineSet
-420 762 m 1,0,-1
 -420 917 l 1,1,-1
 -250 917 l 1,2,-1
 -250 762 l 1,3,-1
 -420 762 l 1,0,-1
EndSplineSet
EndChar

StartChar: uni0308.cap
Encoding: 367 -1 367
Width: 0
Flags: W
LayerCount: 2
Fore
SplineSet
-510 746 m 1,0,-1
 -510 888 l 1,1,-1
 -370 888 l 1,2,-1
 -370 746 l 1,3,-1
 -510 746 l 1,0,-1
-300 746 m 1,4,-1
 -300 888 l 1,5,-1
 -160 888 l 1,6,-1
 -160 746 l 1,7,-1
 -300 746 l 1,4,-1
EndSplineSet
EndChar

StartChar: uni030A.cap
Encoding: 368 -1 368
Width: 0
Flags: W
LayerCount: 2
Fore
SplineSet
-458 800 m 2,0,-1
 -458 860 l 2,1,2
 -458 944 -458 944 -373 944 c 2,3,-1
 -297 944 l 2,4,5
 -212 944 -212 944 -212 860 c 2,6,-1
 -212 800 l 2,7,8
 -212 716 -212 716 -297 716 c 2,9,-1
 -373 716 l 2,10,11
 -458 716 -458 716 -458 800 c 2,0,-1
-367 798 m 2,12,13
 -367 794 -367 794 -363 794 c 2,14,-1
 -307 794 l 2,15,16
 -303 794 -303 794 -303 798 c 2,17,-1
 -303 862 l 2,18,19
 -303 866 -303 866 -307 866 c 2,20,-1
 -363 866 l 2,21,22
 -367 866 -367 866 -367 862 c 2,23,-1
 -367 798 l 2,12,13
EndSplineSet
EndChar

StartChar: uni030B.cap
Encoding: 369 -1 369
Width: 0
Flags: W
LayerCount: 2
Fore
SplineSet
-517 790 m 1,0,-1
 -399 963 l 1,1,-1
 -304 892 l 1,2,-1
 -434 726 l 1,3,-1
 -517 790 l 1,0,-1
-322 790 m 1,4,-1
 -204 963 l 1,5,-1
 -110 892 l 1,6,-1
 -239 726 l 1,7,-1
 -322 790 l 1,4,-1
EndSplineSet
EndChar

StartChar: uni030C.cap
Encoding: 370 -1 370
Width: 0
Flags: W
LayerCount: 2
Fore
SplineSet
-502 880 m 1,0,-1
 -432 953 l 1,1,-1
 -335 860 l 1,2,-1
 -238 953 l 1,3,-1
 -168 880 l 1,4,-1
 -335 717 l 1,5,-1
 -502 880 l 1,0,-1
EndSplineSet
EndChar

StartChar: zero.zero
Encoding: 371 -1 371
Width: 578
Flags: W
LayerCount: 2
Fore
SplineSet
46 176 m 2,0,-1
 46 514 l 2,1,2
 46 690 46 690 222 690 c 2,3,-1
 356 690 l 2,4,5
 532 690 532 690 532 514 c 2,6,-1
 532 176 l 2,7,8
 532 0 532 0 356 0 c 2,9,-1
 222 0 l 2,10,11
 46 0 46 0 46 176 c 2,0,-1
220 168 m 2,12,13
 220 157 220 157 231 157 c 2,14,-1
 347 157 l 2,15,16
 358 157 358 157 358 168 c 2,17,-1
 358 522 l 2,18,19
 358 533 358 533 347 533 c 2,20,-1
 231 533 l 2,21,22
 220 533 220 533 220 522 c 2,23,-1
 220 168 l 2,12,13
254 273 m 1,24,-1
 254 417 l 1,25,-1
 324 417 l 1,26,-1
 324 273 l 1,27,-1
 254 273 l 1,24,-1
EndSplineSet
EndChar

